<?xml version="1.0" encoding="UTF-8" standalone="no"?>
<!DOCTYPE svg PUBLIC "-//W3C//DTD SVG 1.1//EN"
 "http://www.w3.org/Graphics/SVG/1.1/DTD/svg11.dtd">
<!-- Generated by graphviz version 2.38.0 (20140413.2041)
 -->
<!-- Title: models_diagram Pages: 1 -->
<svg width="926pt" height="788pt"
 viewBox="0.00 0.00 925.97 788.00" xmlns="http://www.w3.org/2000/svg" xmlns:xlink="http://www.w3.org/1999/xlink">
<g id="graph0" class="graph" transform="scale(1 1) rotate(0) translate(4 784)">
<title>models_diagram</title>
<polygon fill="none" stroke="none" points="-4,4 -4,-784 921.969,-784 921.969,4 -4,4"/>
<!-- _diagram_info -->
<g id="node1" class="node"><title>_diagram_info</title>
<text text-anchor="start" x="90.29" y="-723.6" font-family="Times,serif" font-size="13.00">Models diagram</text>
<text text-anchor="start" x="90.29" y="-710.6" font-family="Times,serif" font-size="13.00">Date: Sep 25 2015 &#45; 12:34</text>
<text text-anchor="start" x="90.29" y="-697.6" font-family="Times,serif" font-size="13.00">Migration version: 20150925063611</text>
<text text-anchor="start" x="90.29" y="-684.6" font-family="Times,serif" font-size="13.00">Generated by RailRoady 1.3.1</text>
<text text-anchor="start" x="90.29" y="-671.6" font-family="Times,serif" font-size="13.00">http://railroady.prestonlee.com</text>
</g>
<!-- Batch -->
<g id="node2" class="node"><title>Batch</title>
<path fill="none" stroke="black" d="M321.751,-458.5C321.751,-458.5 479.728,-458.5 479.728,-458.5 485.728,-458.5 491.728,-464.5 491.728,-470.5 491.728,-470.5 491.728,-574.5 491.728,-574.5 491.728,-580.5 485.728,-586.5 479.728,-586.5 479.728,-586.5 321.751,-586.5 321.751,-586.5 315.751,-586.5 309.751,-580.5 309.751,-574.5 309.751,-574.5 309.751,-470.5 309.751,-470.5 309.751,-464.5 315.751,-458.5 321.751,-458.5"/>
<text text-anchor="middle" x="400.74" y="-571.3" font-family="Times,serif" font-size="14.00">Batch</text>
<polyline fill="none" stroke="black" points="309.751,-564.5 491.728,-564.5 "/>
<text text-anchor="start" x="317.751" y="-549.3" font-family="Times,serif" font-size="14.00">id :integer</text>
<text text-anchor="start" x="317.751" y="-535.3" font-family="Times,serif" font-size="14.00">batch_name :string</text>
<text text-anchor="start" x="317.751" y="-521.3" font-family="Times,serif" font-size="14.00">batch_type :string</text>
<text text-anchor="start" x="317.751" y="-507.3" font-family="Times,serif" font-size="14.00">batch_duration :string</text>
<text text-anchor="start" x="317.751" y="-493.3" font-family="Times,serif" font-size="14.00">batch_commenced_date :date</text>
<text text-anchor="start" x="317.751" y="-479.3" font-family="Times,serif" font-size="14.00">created_at :datetime</text>
<text text-anchor="start" x="317.751" y="-465.3" font-family="Times,serif" font-size="14.00">updated_at :datetime</text>
</g>
<!-- BatchCourse -->
<g id="node3" class="node"><title>BatchCourse</title>
<path fill="none" stroke="black" d="M232.234,-79.5C232.234,-79.5 341.245,-79.5 341.245,-79.5 347.245,-79.5 353.245,-85.5 353.245,-91.5 353.245,-91.5 353.245,-167.5 353.245,-167.5 353.245,-173.5 347.245,-179.5 341.245,-179.5 341.245,-179.5 232.234,-179.5 232.234,-179.5 226.234,-179.5 220.234,-173.5 220.234,-167.5 220.234,-167.5 220.234,-91.5 220.234,-91.5 220.234,-85.5 226.234,-79.5 232.234,-79.5"/>
<text text-anchor="middle" x="286.74" y="-164.3" font-family="Times,serif" font-size="14.00">BatchCourse</text>
<polyline fill="none" stroke="black" points="220.234,-157.5 353.245,-157.5 "/>
<text text-anchor="start" x="228.234" y="-142.3" font-family="Times,serif" font-size="14.00">id :integer</text>
<text text-anchor="start" x="228.234" y="-128.3" font-family="Times,serif" font-size="14.00">batch_id :integer</text>
<text text-anchor="start" x="228.234" y="-114.3" font-family="Times,serif" font-size="14.00">course_id :integer</text>
<text text-anchor="start" x="228.234" y="-100.3" font-family="Times,serif" font-size="14.00">created_at :datetime</text>
<text text-anchor="start" x="228.234" y="-86.3" font-family="Times,serif" font-size="14.00">updated_at :datetime</text>
</g>
<!-- Batch&#45;&gt;BatchCourse -->
<g id="edge3" class="edge"><title>Batch&#45;&gt;BatchCourse</title>
<path fill="none" stroke="#d1bf2a" d="M325.468,-451.983C318.479,-442.543 312.315,-432.475 307.74,-422 274.961,-346.947 275.168,-250.653 279.797,-189.74"/>
<ellipse fill="none" stroke="#d1bf2a" cx="327.986" cy="-455.247" rx="4.00002" ry="4.00002"/>
<polygon fill="#d1bf2a" stroke="#d1bf2a" points="279.817,-189.501 285.124,-179.905 280.228,-184.517 280.639,-179.534 280.639,-179.534 280.639,-179.534 280.228,-184.517 276.154,-179.164 279.817,-189.501 279.817,-189.501"/>
</g>
<!-- BatchStudent -->
<g id="node4" class="node"><title>BatchStudent</title>
<path fill="none" stroke="black" d="M572.234,-72.5C572.234,-72.5 681.245,-72.5 681.245,-72.5 687.245,-72.5 693.245,-78.5 693.245,-84.5 693.245,-84.5 693.245,-174.5 693.245,-174.5 693.245,-180.5 687.245,-186.5 681.245,-186.5 681.245,-186.5 572.234,-186.5 572.234,-186.5 566.234,-186.5 560.234,-180.5 560.234,-174.5 560.234,-174.5 560.234,-84.5 560.234,-84.5 560.234,-78.5 566.234,-72.5 572.234,-72.5"/>
<text text-anchor="middle" x="626.74" y="-171.3" font-family="Times,serif" font-size="14.00">BatchStudent</text>
<polyline fill="none" stroke="black" points="560.234,-164.5 693.245,-164.5 "/>
<text text-anchor="start" x="568.234" y="-149.3" font-family="Times,serif" font-size="14.00">id :integer</text>
<text text-anchor="start" x="568.234" y="-135.3" font-family="Times,serif" font-size="14.00">batch_id :integer</text>
<text text-anchor="start" x="568.234" y="-121.3" font-family="Times,serif" font-size="14.00">student_id :integer</text>
<text text-anchor="start" x="568.234" y="-107.3" font-family="Times,serif" font-size="14.00">student_fee :integer</text>
<text text-anchor="start" x="568.234" y="-93.3" font-family="Times,serif" font-size="14.00">created_at :datetime</text>
<text text-anchor="start" x="568.234" y="-79.3" font-family="Times,serif" font-size="14.00">updated_at :datetime</text>
</g>
<!-- Batch&#45;&gt;BatchStudent -->
<g id="edge5" class="edge"><title>Batch&#45;&gt;BatchStudent</title>
<path fill="none" stroke="#8b8b9c" d="M472.264,-452.127C479.896,-442.518 486.967,-432.371 492.74,-422 537.371,-341.825 504.697,-304.039 547.74,-223 552.859,-213.361 559.131,-203.844 565.882,-194.793"/>
<ellipse fill="none" stroke="#8b8b9c" cx="469.704" cy="-455.262" rx="4.00002" ry="4.00002"/>
<polygon fill="#8b8b9c" stroke="#8b8b9c" points="566.082,-194.534 575.757,-189.373 569.139,-190.578 572.197,-186.621 572.197,-186.621 572.197,-186.621 569.139,-190.578 568.636,-183.87 566.082,-194.534 566.082,-194.534"/>
</g>
<!-- BatchTutor -->
<g id="node5" class="node"><title>BatchTutor</title>
<path fill="none" stroke="black" d="M408.234,-79.5C408.234,-79.5 517.245,-79.5 517.245,-79.5 523.245,-79.5 529.245,-85.5 529.245,-91.5 529.245,-91.5 529.245,-167.5 529.245,-167.5 529.245,-173.5 523.245,-179.5 517.245,-179.5 517.245,-179.5 408.234,-179.5 408.234,-179.5 402.234,-179.5 396.234,-173.5 396.234,-167.5 396.234,-167.5 396.234,-91.5 396.234,-91.5 396.234,-85.5 402.234,-79.5 408.234,-79.5"/>
<text text-anchor="middle" x="462.74" y="-164.3" font-family="Times,serif" font-size="14.00">BatchTutor</text>
<polyline fill="none" stroke="black" points="396.234,-157.5 529.245,-157.5 "/>
<text text-anchor="start" x="404.234" y="-142.3" font-family="Times,serif" font-size="14.00">id :integer</text>
<text text-anchor="start" x="404.234" y="-128.3" font-family="Times,serif" font-size="14.00">batch_id :integer</text>
<text text-anchor="start" x="404.234" y="-114.3" font-family="Times,serif" font-size="14.00">tutor_id :integer</text>
<text text-anchor="start" x="404.234" y="-100.3" font-family="Times,serif" font-size="14.00">created_at :datetime</text>
<text text-anchor="start" x="404.234" y="-86.3" font-family="Times,serif" font-size="14.00">updated_at :datetime</text>
</g>
<!-- Batch&#45;&gt;BatchTutor -->
<g id="edge1" class="edge"><title>Batch&#45;&gt;BatchTutor</title>
<path fill="none" stroke="#d22dfd" d="M458.58,-451.196C463.935,-441.822 468.542,-431.985 471.74,-422 496.516,-344.623 486.696,-249.717 475.915,-189.659"/>
<ellipse fill="none" stroke="#d22dfd" cx="456.404" cy="-454.836" rx="4.00002" ry="4.00002"/>
<polygon fill="#d22dfd" stroke="#d22dfd" points="475.872,-189.427 478.465,-178.772 474.957,-184.511 474.041,-179.596 474.041,-179.596 474.041,-179.596 474.957,-184.511 469.618,-180.42 475.872,-189.427 475.872,-189.427"/>
</g>
<!-- Course -->
<g id="node6" class="node"><title>Course</title>
<path fill="none" stroke="black" d="M120.514,-265.5C120.514,-265.5 248.966,-265.5 248.966,-265.5 254.966,-265.5 260.966,-271.5 260.966,-277.5 260.966,-277.5 260.966,-367.5 260.966,-367.5 260.966,-373.5 254.966,-379.5 248.966,-379.5 248.966,-379.5 120.514,-379.5 120.514,-379.5 114.514,-379.5 108.514,-373.5 108.514,-367.5 108.514,-367.5 108.514,-277.5 108.514,-277.5 108.514,-271.5 114.514,-265.5 120.514,-265.5"/>
<text text-anchor="middle" x="184.74" y="-364.3" font-family="Times,serif" font-size="14.00">Course</text>
<polyline fill="none" stroke="black" points="108.514,-357.5 260.966,-357.5 "/>
<text text-anchor="start" x="116.514" y="-342.3" font-family="Times,serif" font-size="14.00">id :integer</text>
<text text-anchor="start" x="116.514" y="-328.3" font-family="Times,serif" font-size="14.00">course_name :string</text>
<text text-anchor="start" x="116.514" y="-314.3" font-family="Times,serif" font-size="14.00">course_type :string</text>
<text text-anchor="start" x="116.514" y="-300.3" font-family="Times,serif" font-size="14.00">course_duration :integer</text>
<text text-anchor="start" x="116.514" y="-286.3" font-family="Times,serif" font-size="14.00">created_at :datetime</text>
<text text-anchor="start" x="116.514" y="-272.3" font-family="Times,serif" font-size="14.00">updated_at :datetime</text>
</g>
<!-- Batch&#45;&gt;Course -->
<g id="edge4" class="edge"><title>Batch&#45;&gt;Course</title>
<path fill="none" stroke="#c88060" d="M309.046,-451.963C297.252,-442.191 285.536,-432.047 274.74,-422 263.084,-411.154 251.199,-399.031 240.049,-387.099"/>
<polygon fill="#c88060" stroke="#c88060" points="309.069,-451.982 313.944,-461.804 312.934,-455.154 316.799,-458.326 316.799,-458.326 316.799,-458.326 312.934,-455.154 319.654,-454.847 309.069,-451.982 309.069,-451.982"/>
<polygon fill="#c88060" stroke="#c88060" points="240.001,-387.048 236.512,-376.651 236.605,-383.378 233.209,-379.708 233.209,-379.708 233.209,-379.708 236.605,-383.378 229.906,-382.764 240.001,-387.048 240.001,-387.048"/>
</g>
<!-- Student -->
<g id="node12" class="node"><title>Student</title>
<path fill="none" stroke="black" d="M568.386,-251.5C568.386,-251.5 717.093,-251.5 717.093,-251.5 723.093,-251.5 729.093,-257.5 729.093,-263.5 729.093,-263.5 729.093,-381.5 729.093,-381.5 729.093,-387.5 723.093,-393.5 717.093,-393.5 717.093,-393.5 568.386,-393.5 568.386,-393.5 562.386,-393.5 556.386,-387.5 556.386,-381.5 556.386,-381.5 556.386,-263.5 556.386,-263.5 556.386,-257.5 562.386,-251.5 568.386,-251.5"/>
<text text-anchor="middle" x="642.74" y="-378.3" font-family="Times,serif" font-size="14.00">Student</text>
<polyline fill="none" stroke="black" points="556.386,-371.5 729.093,-371.5 "/>
<text text-anchor="start" x="564.386" y="-356.3" font-family="Times,serif" font-size="14.00">id :integer</text>
<text text-anchor="start" x="564.386" y="-342.3" font-family="Times,serif" font-size="14.00">student_name :string</text>
<text text-anchor="start" x="564.386" y="-328.3" font-family="Times,serif" font-size="14.00">student_qualification :string</text>
<text text-anchor="start" x="564.386" y="-314.3" font-family="Times,serif" font-size="14.00">email_id :string</text>
<text text-anchor="start" x="564.386" y="-300.3" font-family="Times,serif" font-size="14.00">phone_number :integer</text>
<text text-anchor="start" x="564.386" y="-286.3" font-family="Times,serif" font-size="14.00">address :text</text>
<text text-anchor="start" x="564.386" y="-272.3" font-family="Times,serif" font-size="14.00">created_at :datetime</text>
<text text-anchor="start" x="564.386" y="-258.3" font-family="Times,serif" font-size="14.00">updated_at :datetime</text>
</g>
<!-- Batch&#45;&gt;Student -->
<g id="edge6" class="edge"><title>Batch&#45;&gt;Student</title>
<path fill="none" stroke="#76ad91" d="M499.935,-455.182C514.589,-444.477 529.274,-433.216 542.74,-422 550.839,-415.253 559.057,-407.974 567.121,-400.535"/>
<polygon fill="#76ad91" stroke="#76ad91" points="499.906,-455.204 489.167,-457.423 495.856,-458.136 491.806,-461.068 491.806,-461.068 491.806,-461.068 495.856,-458.136 494.445,-464.713 499.906,-455.204 499.906,-455.204"/>
<polygon fill="#76ad91" stroke="#76ad91" points="567.167,-400.493 577.547,-396.959 570.822,-397.081 574.477,-393.669 574.477,-393.669 574.477,-393.669 570.822,-397.081 571.406,-390.38 567.167,-400.493 567.167,-400.493"/>
</g>
<!-- Tutor -->
<g id="node15" class="node"><title>Tutor</title>
<path fill="none" stroke="black" d="M328.621,-223.5C328.621,-223.5 450.859,-223.5 450.859,-223.5 456.859,-223.5 462.859,-229.5 462.859,-235.5 462.859,-235.5 462.859,-409.5 462.859,-409.5 462.859,-415.5 456.859,-421.5 450.859,-421.5 450.859,-421.5 328.621,-421.5 328.621,-421.5 322.621,-421.5 316.621,-415.5 316.621,-409.5 316.621,-409.5 316.621,-235.5 316.621,-235.5 316.621,-229.5 322.621,-223.5 328.621,-223.5"/>
<text text-anchor="middle" x="389.74" y="-406.3" font-family="Times,serif" font-size="14.00">Tutor</text>
<polyline fill="none" stroke="black" points="316.621,-399.5 462.859,-399.5 "/>
<text text-anchor="start" x="324.621" y="-384.3" font-family="Times,serif" font-size="14.00">id :integer</text>
<text text-anchor="start" x="324.621" y="-370.3" font-family="Times,serif" font-size="14.00">tutor_name :string</text>
<text text-anchor="start" x="324.621" y="-356.3" font-family="Times,serif" font-size="14.00">qualification :string</text>
<text text-anchor="start" x="324.621" y="-342.3" font-family="Times,serif" font-size="14.00">experience :string</text>
<text text-anchor="start" x="324.621" y="-328.3" font-family="Times,serif" font-size="14.00">address :text</text>
<text text-anchor="start" x="324.621" y="-314.3" font-family="Times,serif" font-size="14.00">gender :string</text>
<text text-anchor="start" x="324.621" y="-300.3" font-family="Times,serif" font-size="14.00">hourly_rate :integer</text>
<text text-anchor="start" x="324.621" y="-286.3" font-family="Times,serif" font-size="14.00">location :string</text>
<text text-anchor="start" x="324.621" y="-272.3" font-family="Times,serif" font-size="14.00">phone_number :integer</text>
<text text-anchor="start" x="324.621" y="-258.3" font-family="Times,serif" font-size="14.00">email_id :string</text>
<text text-anchor="start" x="324.621" y="-244.3" font-family="Times,serif" font-size="14.00">created_at :datetime</text>
<text text-anchor="start" x="324.621" y="-230.3" font-family="Times,serif" font-size="14.00">updated_at :datetime</text>
</g>
<!-- Batch&#45;&gt;Tutor -->
<g id="edge2" class="edge"><title>Batch&#45;&gt;Tutor</title>
<path fill="none" stroke="#e1b958" d="M396.673,-448.307C396.373,-442.905 396.067,-437.392 395.759,-431.84"/>
<polygon fill="#e1b958" stroke="#e1b958" points="396.674,-448.323 392.736,-458.557 396.952,-453.315 397.229,-458.307 397.229,-458.307 397.229,-458.307 396.952,-453.315 401.722,-458.058 396.674,-448.323 396.674,-448.323"/>
<polygon fill="#e1b958" stroke="#e1b958" points="395.757,-431.804 399.695,-421.569 395.479,-426.811 395.202,-421.819 395.202,-421.819 395.202,-421.819 395.479,-426.811 390.709,-422.069 395.757,-431.804 395.757,-431.804"/>
</g>
<!-- Course&#45;&gt;BatchCourse -->
<g id="edge7" class="edge"><title>Course&#45;&gt;BatchCourse</title>
<path fill="none" stroke="#cc93d3" d="M218.455,-258.367C230.466,-235.876 243.927,-210.669 255.703,-188.618"/>
<ellipse fill="none" stroke="#cc93d3" cx="216.538" cy="-261.956" rx="4.00002" ry="4.00002"/>
<polygon fill="#cc93d3" stroke="#cc93d3" points="255.755,-188.52 264.435,-181.819 258.11,-184.11 260.466,-179.699 260.466,-179.699 260.466,-179.699 258.11,-184.11 256.496,-177.58 255.755,-188.52 255.755,-188.52"/>
</g>
<!-- Syllabus -->
<g id="node14" class="node"><title>Syllabus</title>
<path fill="none" stroke="black" d="M12,-72.5C12,-72.5 147.479,-72.5 147.479,-72.5 153.479,-72.5 159.479,-78.5 159.479,-84.5 159.479,-84.5 159.479,-174.5 159.479,-174.5 159.479,-180.5 153.479,-186.5 147.479,-186.5 147.479,-186.5 12,-186.5 12,-186.5 6,-186.5 0,-180.5 0,-174.5 0,-174.5 0,-84.5 0,-84.5 0,-78.5 6,-72.5 12,-72.5"/>
<text text-anchor="middle" x="79.7397" y="-171.3" font-family="Times,serif" font-size="14.00">Syllabus</text>
<polyline fill="none" stroke="black" points="0,-164.5 159.479,-164.5 "/>
<text text-anchor="start" x="8" y="-149.3" font-family="Times,serif" font-size="14.00">id :integer</text>
<text text-anchor="start" x="8" y="-135.3" font-family="Times,serif" font-size="14.00">topics :string</text>
<text text-anchor="start" x="8" y="-121.3" font-family="Times,serif" font-size="14.00">syllabus_description :text</text>
<text text-anchor="start" x="8" y="-107.3" font-family="Times,serif" font-size="14.00">course_id :integer</text>
<text text-anchor="start" x="8" y="-93.3" font-family="Times,serif" font-size="14.00">created_at :datetime</text>
<text text-anchor="start" x="8" y="-79.3" font-family="Times,serif" font-size="14.00">updated_at :datetime</text>
</g>
<!-- Course&#45;&gt;Syllabus -->
<g id="edge9" class="edge"><title>Course&#45;&gt;Syllabus</title>
<path fill="none" stroke="#1c90b3" d="M149.047,-256.574C138.2,-236.841 126.282,-215.162 115.434,-195.43"/>
<polygon fill="#1c90b3" stroke="#1c90b3" points="149.128,-256.721 150.002,-267.652 151.537,-261.103 153.946,-265.484 153.946,-265.484 153.946,-265.484 151.537,-261.103 157.889,-263.316 149.128,-256.721 149.128,-256.721"/>
<polygon fill="#1c90b3" stroke="#1c90b3" points="115.351,-195.278 114.477,-184.347 112.942,-190.896 110.533,-186.515 110.533,-186.515 110.533,-186.515 112.942,-190.896 106.59,-188.683 115.351,-195.278 115.351,-195.278"/>
</g>
<!-- Coursesyllabus -->
<g id="node16" class="node"><title>Coursesyllabus</title>
<ellipse fill="none" stroke="black" cx="133.74" cy="-18" rx="64.296" ry="18"/>
<text text-anchor="middle" x="133.74" y="-13.8" font-family="Times,serif" font-size="14.00">Coursesyllabus</text>
</g>
<!-- Course&#45;&gt;Coursesyllabus -->
<g id="edge8" class="edge"><title>Course&#45;&gt;Coursesyllabus</title>
<path fill="none" stroke="#9d165b" d="M189.546,-257.356C191.309,-205.905 189.061,-132.542 168.74,-72 165.458,-62.2243 159.904,-52.5183 154.175,-44.1355"/>
<ellipse fill="none" stroke="#9d165b" cx="189.387" cy="-261.423" rx="4" ry="4"/>
<polygon fill="#9d165b" stroke="#9d165b" points="154.098,-44.0287 151.873,-33.2907 151.164,-39.98 148.23,-35.9313 148.23,-35.9313 148.23,-35.9313 151.164,-39.98 144.586,-38.5719 154.098,-44.0287 154.098,-44.0287"/>
</g>
<!-- CourseSyllabus -->
<g id="node7" class="node"><title>CourseSyllabus</title>
<path fill="none" stroke="black" d="M524.234,-651.5C524.234,-651.5 633.245,-651.5 633.245,-651.5 639.245,-651.5 645.245,-657.5 645.245,-663.5 645.245,-663.5 645.245,-739.5 645.245,-739.5 645.245,-745.5 639.245,-751.5 633.245,-751.5 633.245,-751.5 524.234,-751.5 524.234,-751.5 518.234,-751.5 512.234,-745.5 512.234,-739.5 512.234,-739.5 512.234,-663.5 512.234,-663.5 512.234,-657.5 518.234,-651.5 524.234,-651.5"/>
<text text-anchor="middle" x="578.74" y="-736.3" font-family="Times,serif" font-size="14.00">CourseSyllabus</text>
<polyline fill="none" stroke="black" points="512.234,-729.5 645.245,-729.5 "/>
<text text-anchor="start" x="520.234" y="-714.3" font-family="Times,serif" font-size="14.00">id :integer</text>
<text text-anchor="start" x="520.234" y="-700.3" font-family="Times,serif" font-size="14.00">course_id :integer</text>
<text text-anchor="start" x="520.234" y="-686.3" font-family="Times,serif" font-size="14.00">syllabus_id :integer</text>
<text text-anchor="start" x="520.234" y="-672.3" font-family="Times,serif" font-size="14.00">created_at :datetime</text>
<text text-anchor="start" x="520.234" y="-658.3" font-family="Times,serif" font-size="14.00">updated_at :datetime</text>
</g>
<!-- FeesPaid -->
<g id="node8" class="node"><title>FeesPaid</title>
<path fill="none" stroke="black" d="M675.445,-644.5C675.445,-644.5 786.035,-644.5 786.035,-644.5 792.035,-644.5 798.035,-650.5 798.035,-656.5 798.035,-656.5 798.035,-746.5 798.035,-746.5 798.035,-752.5 792.035,-758.5 786.035,-758.5 786.035,-758.5 675.445,-758.5 675.445,-758.5 669.445,-758.5 663.445,-752.5 663.445,-746.5 663.445,-746.5 663.445,-656.5 663.445,-656.5 663.445,-650.5 669.445,-644.5 675.445,-644.5"/>
<text text-anchor="middle" x="730.74" y="-743.3" font-family="Times,serif" font-size="14.00">FeesPaid</text>
<polyline fill="none" stroke="black" points="663.445,-736.5 798.035,-736.5 "/>
<text text-anchor="start" x="671.445" y="-721.3" font-family="Times,serif" font-size="14.00">id :integer</text>
<text text-anchor="start" x="671.445" y="-707.3" font-family="Times,serif" font-size="14.00">payment_type :string</text>
<text text-anchor="start" x="671.445" y="-693.3" font-family="Times,serif" font-size="14.00">payment_date :date</text>
<text text-anchor="start" x="671.445" y="-679.3" font-family="Times,serif" font-size="14.00">amount :integer</text>
<text text-anchor="start" x="671.445" y="-665.3" font-family="Times,serif" font-size="14.00">created_at :datetime</text>
<text text-anchor="start" x="671.445" y="-651.3" font-family="Times,serif" font-size="14.00">updated_at :datetime</text>
</g>
<!-- Project -->
<g id="node9" class="node"><title>Project</title>
<path fill="none" stroke="black" d="M777.51,-258.5C777.51,-258.5 905.969,-258.5 905.969,-258.5 911.969,-258.5 917.969,-264.5 917.969,-270.5 917.969,-270.5 917.969,-374.5 917.969,-374.5 917.969,-380.5 911.969,-386.5 905.969,-386.5 905.969,-386.5 777.51,-386.5 777.51,-386.5 771.51,-386.5 765.51,-380.5 765.51,-374.5 765.51,-374.5 765.51,-270.5 765.51,-270.5 765.51,-264.5 771.51,-258.5 777.51,-258.5"/>
<text text-anchor="middle" x="841.74" y="-371.3" font-family="Times,serif" font-size="14.00">Project</text>
<polyline fill="none" stroke="black" points="765.51,-364.5 917.969,-364.5 "/>
<text text-anchor="start" x="773.51" y="-349.3" font-family="Times,serif" font-size="14.00">id :integer</text>
<text text-anchor="start" x="773.51" y="-335.3" font-family="Times,serif" font-size="14.00">project_name :string</text>
<text text-anchor="start" x="773.51" y="-321.3" font-family="Times,serif" font-size="14.00">project_description :text</text>
<text text-anchor="start" x="773.51" y="-307.3" font-family="Times,serif" font-size="14.00">project_start_date :date</text>
<text text-anchor="start" x="773.51" y="-293.3" font-family="Times,serif" font-size="14.00">project_status :date</text>
<text text-anchor="start" x="773.51" y="-279.3" font-family="Times,serif" font-size="14.00">created_at :datetime</text>
<text text-anchor="start" x="773.51" y="-265.3" font-family="Times,serif" font-size="14.00">updated_at :datetime</text>
</g>
<!-- ProjectInvolvedByStudent -->
<g id="node10" class="node"><title>ProjectInvolvedByStudent</title>
<path fill="none" stroke="black" d="M583.471,-472.5C583.471,-472.5 724.009,-472.5 724.009,-472.5 730.009,-472.5 736.009,-478.5 736.009,-484.5 736.009,-484.5 736.009,-560.5 736.009,-560.5 736.009,-566.5 730.009,-572.5 724.009,-572.5 724.009,-572.5 583.471,-572.5 583.471,-572.5 577.471,-572.5 571.471,-566.5 571.471,-560.5 571.471,-560.5 571.471,-484.5 571.471,-484.5 571.471,-478.5 577.471,-472.5 583.471,-472.5"/>
<text text-anchor="middle" x="653.74" y="-557.3" font-family="Times,serif" font-size="14.00">ProjectInvolvedByStudent</text>
<polyline fill="none" stroke="black" points="571.471,-550.5 736.009,-550.5 "/>
<text text-anchor="start" x="579.471" y="-535.3" font-family="Times,serif" font-size="14.00">id :integer</text>
<text text-anchor="start" x="579.471" y="-521.3" font-family="Times,serif" font-size="14.00">student_id :integer</text>
<text text-anchor="start" x="579.471" y="-507.3" font-family="Times,serif" font-size="14.00">project_id :integer</text>
<text text-anchor="start" x="579.471" y="-493.3" font-family="Times,serif" font-size="14.00">created_at :datetime</text>
<text text-anchor="start" x="579.471" y="-479.3" font-family="Times,serif" font-size="14.00">updated_at :datetime</text>
</g>
<!-- ProjectInvolvedByStudent&#45;&gt;Project -->
<g id="edge10" class="edge"><title>ProjectInvolvedByStudent&#45;&gt;Project</title>
<path fill="none" stroke="#254108" d="M711.435,-466.791C726.117,-452.444 741.705,-436.832 755.74,-422 764.112,-413.152 772.752,-403.686 781.181,-394.25"/>
<ellipse fill="none" stroke="#254108" cx="708.508" cy="-469.641" rx="4.00002" ry="4.00002"/>
<polygon fill="#254108" stroke="#254108" points="781.245,-394.178 791.25,-389.689 784.565,-390.439 787.886,-386.701 787.886,-386.701 787.886,-386.701 784.565,-390.439 784.521,-383.713 781.245,-394.178 781.245,-394.178"/>
</g>
<!-- ProjectInvolvedByStudent&#45;&gt;Student -->
<g id="edge11" class="edge"><title>ProjectInvolvedByStudent&#45;&gt;Student</title>
<path fill="none" stroke="#1bf9b2" d="M650.549,-464.058C649.505,-445.267 648.325,-424.035 647.205,-403.873"/>
<ellipse fill="none" stroke="#1bf9b2" cx="650.785" cy="-468.308" rx="4" ry="4"/>
<polygon fill="#1bf9b2" stroke="#1bf9b2" points="647.198,-403.747 651.136,-393.512 646.921,-398.754 646.643,-393.762 646.643,-393.762 646.643,-393.762 646.921,-398.754 642.15,-394.012 647.198,-403.747 647.198,-403.747"/>
</g>
<!-- ProjectStatus -->
<g id="node11" class="node"><title>ProjectStatus</title>
<path fill="none" stroke="black" d="M777.51,-472.5C777.51,-472.5 905.969,-472.5 905.969,-472.5 911.969,-472.5 917.969,-478.5 917.969,-484.5 917.969,-484.5 917.969,-560.5 917.969,-560.5 917.969,-566.5 911.969,-572.5 905.969,-572.5 905.969,-572.5 777.51,-572.5 777.51,-572.5 771.51,-572.5 765.51,-566.5 765.51,-560.5 765.51,-560.5 765.51,-484.5 765.51,-484.5 765.51,-478.5 771.51,-472.5 777.51,-472.5"/>
<text text-anchor="middle" x="841.74" y="-557.3" font-family="Times,serif" font-size="14.00">ProjectStatus</text>
<polyline fill="none" stroke="black" points="765.51,-550.5 917.969,-550.5 "/>
<text text-anchor="start" x="773.51" y="-535.3" font-family="Times,serif" font-size="14.00">id :integer</text>
<text text-anchor="start" x="773.51" y="-521.3" font-family="Times,serif" font-size="14.00">project_id :integer</text>
<text text-anchor="start" x="773.51" y="-507.3" font-family="Times,serif" font-size="14.00">project_description :text</text>
<text text-anchor="start" x="773.51" y="-493.3" font-family="Times,serif" font-size="14.00">created_at :datetime</text>
<text text-anchor="start" x="773.51" y="-479.3" font-family="Times,serif" font-size="14.00">updated_at :datetime</text>
</g>
<!-- ProjectStatus&#45;&gt;Project -->
<g id="edge12" class="edge"><title>ProjectStatus&#45;&gt;Project</title>
<path fill="none" stroke="#9029ad" d="M841.74,-464.236C841.74,-443.182 841.74,-419.044 841.74,-396.773"/>
<ellipse fill="none" stroke="#9029ad" cx="841.74" cy="-468.302" rx="4" ry="4"/>
<polygon fill="#9029ad" stroke="#9029ad" points="841.74,-396.69 846.24,-386.69 841.74,-391.69 841.74,-386.69 841.74,-386.69 841.74,-386.69 841.74,-391.69 837.24,-386.69 841.74,-396.69 841.74,-396.69"/>
</g>
<!-- Student&#45;&gt;BatchStudent -->
<g id="edge13" class="edge"><title>Student&#45;&gt;BatchStudent</title>
<path fill="none" stroke="#f140ee" d="M636.197,-243.402C634.907,-227.992 633.563,-211.956 632.308,-196.973"/>
<ellipse fill="none" stroke="#f140ee" cx="636.539" cy="-247.477" rx="4" ry="4"/>
<polygon fill="#f140ee" stroke="#f140ee" points="632.29,-196.754 635.939,-186.414 631.873,-191.772 631.455,-186.789 631.455,-186.789 631.455,-186.789 631.873,-191.772 626.971,-187.165 632.29,-196.754 632.29,-196.754"/>
</g>
<!-- Student&#45;&gt;Student -->
<g id="edge14" class="edge"><title>Student&#45;&gt;Student</title>
<path fill="none" stroke="#35b09b" d="M737.304,-348.02C743.406,-342.057 747.093,-333.551 747.093,-322.5 747.093,-311.449 743.406,-302.943 737.304,-296.98"/>
<polygon fill="#35b09b" stroke="#35b09b" points="737.257,-348.053 726.501,-350.184 733.183,-350.952 729.109,-353.851 729.109,-353.851 729.109,-353.851 733.183,-350.952 731.718,-357.517 737.257,-348.053 737.257,-348.053"/>
<polygon fill="#35b09b" stroke="#35b09b" points="737.257,-296.947 731.718,-287.483 733.183,-294.048 729.109,-291.149 729.109,-291.149 729.109,-291.149 733.183,-294.048 726.501,-294.816 737.257,-296.947 737.257,-296.947"/>
</g>
<!-- StudentEvaluation -->
<g id="node13" class="node"><title>StudentEvaluation</title>
<path fill="none" stroke="black" d="M319.017,-623.5C319.017,-623.5 482.462,-623.5 482.462,-623.5 488.462,-623.5 494.462,-629.5 494.462,-635.5 494.462,-635.5 494.462,-767.5 494.462,-767.5 494.462,-773.5 488.462,-779.5 482.462,-779.5 482.462,-779.5 319.017,-779.5 319.017,-779.5 313.017,-779.5 307.017,-773.5 307.017,-767.5 307.017,-767.5 307.017,-635.5 307.017,-635.5 307.017,-629.5 313.017,-623.5 319.017,-623.5"/>
<text text-anchor="middle" x="400.74" y="-764.3" font-family="Times,serif" font-size="14.00">StudentEvaluation</text>
<polyline fill="none" stroke="black" points="307.017,-757.5 494.462,-757.5 "/>
<text text-anchor="start" x="315.017" y="-742.3" font-family="Times,serif" font-size="14.00">id :integer</text>
<text text-anchor="start" x="315.017" y="-728.3" font-family="Times,serif" font-size="14.00">student_id :integer</text>
<text text-anchor="start" x="315.017" y="-714.3" font-family="Times,serif" font-size="14.00">course_id :integer</text>
<text text-anchor="start" x="315.017" y="-700.3" font-family="Times,serif" font-size="14.00">batch_id :integer</text>
<text text-anchor="start" x="315.017" y="-686.3" font-family="Times,serif" font-size="14.00">hours_spent :integer</text>
<text text-anchor="start" x="315.017" y="-672.3" font-family="Times,serif" font-size="14.00">remarks :text</text>
<text text-anchor="start" x="315.017" y="-658.3" font-family="Times,serif" font-size="14.00">mock_interview_remarks :text</text>
<text text-anchor="start" x="315.017" y="-644.3" font-family="Times,serif" font-size="14.00">created_at :datetime</text>
<text text-anchor="start" x="315.017" y="-630.3" font-family="Times,serif" font-size="14.00">updated_at :datetime</text>
</g>
<!-- StudentEvaluation&#45;&gt;Batch -->
<g id="edge17" class="edge"><title>StudentEvaluation&#45;&gt;Batch</title>
<path fill="none" stroke="#6d086d" d="M400.74,-615.278C400.74,-609.081 400.74,-602.863 400.74,-596.745"/>
<ellipse fill="none" stroke="#6d086d" cx="400.74" cy="-619.38" rx="4" ry="4"/>
<polygon fill="#6d086d" stroke="#6d086d" points="400.74,-596.566 405.24,-586.566 400.74,-591.566 400.74,-586.566 400.74,-586.566 400.74,-586.566 400.74,-591.566 396.24,-586.566 400.74,-596.566 400.74,-596.566"/>
</g>
<!-- StudentEvaluation&#45;&gt;Course -->
<g id="edge16" class="edge"><title>StudentEvaluation&#45;&gt;Course</title>
<path fill="none" stroke="#da4867" d="M322.156,-616.925C314.486,-607.158 307.176,-597.076 300.74,-587 260.442,-523.919 227.595,-444.468 207.272,-389.386"/>
<ellipse fill="none" stroke="#da4867" cx="324.746" cy="-620.168" rx="4.00002" ry="4.00002"/>
<polygon fill="#da4867" stroke="#da4867" points="207.179,-389.13 207.975,-378.194 205.463,-384.434 203.748,-379.737 203.748,-379.737 203.748,-379.737 205.463,-384.434 199.521,-381.281 207.179,-389.13 207.179,-389.13"/>
</g>
<!-- StudentEvaluation&#45;&gt;Student -->
<g id="edge15" class="edge"><title>StudentEvaluation&#45;&gt;Student</title>
<path fill="none" stroke="#e9d3da" d="M478.776,-616.967C486.585,-607.159 494.077,-597.057 500.74,-587 535.873,-533.971 532.673,-514.057 562.74,-458 572.506,-439.791 583.531,-420.53 594.204,-402.449"/>
<ellipse fill="none" stroke="#e9d3da" cx="476.119" cy="-620.255" rx="4.00002" ry="4.00002"/>
<polygon fill="#e9d3da" stroke="#e9d3da" points="594.305,-402.278 603.278,-395.974 596.857,-397.978 599.408,-393.678 599.408,-393.678 599.408,-393.678 596.857,-397.978 595.538,-391.381 594.305,-402.278 594.305,-402.278"/>
</g>
<!-- Syllabus&#45;&gt;Coursesyllabus -->
<g id="edge18" class="edge"><title>Syllabus&#45;&gt;Coursesyllabus</title>
<path fill="none" stroke="#a053fe" d="M111.035,-65.0393C114.483,-58.0476 117.835,-51.2503 120.859,-45.1195"/>
<ellipse fill="none" stroke="#a053fe" cx="109.142" cy="-68.8794" rx="4.00002" ry="4.00002"/>
<polygon fill="#a053fe" stroke="#a053fe" points="120.883,-45.0706 129.342,-38.0922 123.094,-40.5862 125.306,-36.1019 125.306,-36.1019 125.306,-36.1019 123.094,-40.5862 121.27,-34.1115 120.883,-45.0706 120.883,-45.0706"/>
</g>
<!-- Tutor&#45;&gt;BatchTutor -->
<g id="edge19" class="edge"><title>Tutor&#45;&gt;BatchTutor</title>
<path fill="none" stroke="#0c3e70" d="M430.193,-215.658C433.672,-206.554 437.103,-197.578 440.357,-189.064"/>
<ellipse fill="none" stroke="#0c3e70" cx="428.63" cy="-219.746" rx="4.00001" ry="4.00001"/>
<polygon fill="#0c3e70" stroke="#0c3e70" points="440.378,-189.008 448.152,-181.273 442.163,-184.337 443.948,-179.667 443.948,-179.667 443.948,-179.667 442.163,-184.337 439.745,-178.06 440.378,-189.008 440.378,-189.008"/>
</g>
</g>
</svg>
