<?xml version="1.0" encoding="UTF-8" standalone="no"?>
<!DOCTYPE svg PUBLIC "-//W3C//DTD SVG 1.1//EN"
 "http://www.w3.org/Graphics/SVG/1.1/DTD/svg11.dtd">
<!-- Generated by graphviz version 2.38.0 (20140413.2041)
 -->
<!-- Title: models_diagram Pages: 1 -->
<svg width="908pt" height="853pt"
 viewBox="0.00 0.00 907.97 853.00" xmlns="http://www.w3.org/2000/svg" xmlns:xlink="http://www.w3.org/1999/xlink">
<g id="graph0" class="graph" transform="scale(1 1) rotate(0) translate(4 849)">
<title>models_diagram</title>
<polygon fill="none" stroke="none" points="-4,4 -4,-849 903.969,-849 903.969,4 -4,4"/>
<!-- _diagram_info -->
<g id="node1" class="node"><title>_diagram_info</title>
<text text-anchor="start" x="86.29" y="-788.6" font-family="Times,serif" font-size="13.00">Models diagram</text>
<text text-anchor="start" x="86.29" y="-775.6" font-family="Times,serif" font-size="13.00">Date: Sep 25 2015 &#45; 15:23</text>
<text text-anchor="start" x="86.29" y="-762.6" font-family="Times,serif" font-size="13.00">Migration version: 20150925063611</text>
<text text-anchor="start" x="86.29" y="-749.6" font-family="Times,serif" font-size="13.00">Generated by RailRoady 1.3.1</text>
<text text-anchor="start" x="86.29" y="-736.6" font-family="Times,serif" font-size="13.00">http://railroady.prestonlee.com</text>
</g>
<!-- Batch -->
<g id="node2" class="node"><title>Batch</title>
<path fill="none" stroke="black" d="M317.751,-523.5C317.751,-523.5 475.728,-523.5 475.728,-523.5 481.728,-523.5 487.728,-529.5 487.728,-535.5 487.728,-535.5 487.728,-639.5 487.728,-639.5 487.728,-645.5 481.728,-651.5 475.728,-651.5 475.728,-651.5 317.751,-651.5 317.751,-651.5 311.751,-651.5 305.751,-645.5 305.751,-639.5 305.751,-639.5 305.751,-535.5 305.751,-535.5 305.751,-529.5 311.751,-523.5 317.751,-523.5"/>
<text text-anchor="middle" x="396.74" y="-636.3" font-family="Times,serif" font-size="14.00">Batch</text>
<polyline fill="none" stroke="black" points="305.751,-629.5 487.728,-629.5 "/>
<text text-anchor="start" x="313.751" y="-614.3" font-family="Times,serif" font-size="14.00">id :integer</text>
<text text-anchor="start" x="313.751" y="-600.3" font-family="Times,serif" font-size="14.00">batch_name :string</text>
<text text-anchor="start" x="313.751" y="-586.3" font-family="Times,serif" font-size="14.00">batch_type :string</text>
<text text-anchor="start" x="313.751" y="-572.3" font-family="Times,serif" font-size="14.00">batch_duration :string</text>
<text text-anchor="start" x="313.751" y="-558.3" font-family="Times,serif" font-size="14.00">batch_commenced_date :date</text>
<text text-anchor="start" x="313.751" y="-544.3" font-family="Times,serif" font-size="14.00">created_at :datetime</text>
<text text-anchor="start" x="313.751" y="-530.3" font-family="Times,serif" font-size="14.00">updated_at :datetime</text>
</g>
<!-- BatchCourse -->
<g id="node3" class="node"><title>BatchCourse</title>
<path fill="none" stroke="black" d="M232.234,-144.5C232.234,-144.5 341.245,-144.5 341.245,-144.5 347.245,-144.5 353.245,-150.5 353.245,-156.5 353.245,-156.5 353.245,-232.5 353.245,-232.5 353.245,-238.5 347.245,-244.5 341.245,-244.5 341.245,-244.5 232.234,-244.5 232.234,-244.5 226.234,-244.5 220.234,-238.5 220.234,-232.5 220.234,-232.5 220.234,-156.5 220.234,-156.5 220.234,-150.5 226.234,-144.5 232.234,-144.5"/>
<text text-anchor="middle" x="286.74" y="-229.3" font-family="Times,serif" font-size="14.00">BatchCourse</text>
<polyline fill="none" stroke="black" points="220.234,-222.5 353.245,-222.5 "/>
<text text-anchor="start" x="228.234" y="-207.3" font-family="Times,serif" font-size="14.00">id :integer</text>
<text text-anchor="start" x="228.234" y="-193.3" font-family="Times,serif" font-size="14.00">batch_id :integer</text>
<text text-anchor="start" x="228.234" y="-179.3" font-family="Times,serif" font-size="14.00">course_id :integer</text>
<text text-anchor="start" x="228.234" y="-165.3" font-family="Times,serif" font-size="14.00">created_at :datetime</text>
<text text-anchor="start" x="228.234" y="-151.3" font-family="Times,serif" font-size="14.00">updated_at :datetime</text>
</g>
<!-- Batch&#45;&gt;BatchCourse -->
<g id="edge3" class="edge"><title>Batch&#45;&gt;BatchCourse</title>
<path fill="none" stroke="#133df1" d="M324.861,-516.905C318.105,-507.452 312.148,-497.403 307.74,-487 275.831,-411.703 275.777,-315.672 280.115,-254.862"/>
<ellipse fill="none" stroke="#133df1" cx="327.269" cy="-520.141" rx="4.00002" ry="4.00002"/>
<polygon fill="#133df1" stroke="#133df1" points="280.132,-254.643 285.393,-245.021 280.519,-249.658 280.907,-244.673 280.907,-244.673 280.907,-244.673 280.519,-249.658 276.42,-244.324 280.132,-254.643 280.132,-254.643"/>
</g>
<!-- BatchStudent -->
<g id="node4" class="node"><title>BatchStudent</title>
<path fill="none" stroke="black" d="M572.234,-137.5C572.234,-137.5 681.245,-137.5 681.245,-137.5 687.245,-137.5 693.245,-143.5 693.245,-149.5 693.245,-149.5 693.245,-239.5 693.245,-239.5 693.245,-245.5 687.245,-251.5 681.245,-251.5 681.245,-251.5 572.234,-251.5 572.234,-251.5 566.234,-251.5 560.234,-245.5 560.234,-239.5 560.234,-239.5 560.234,-149.5 560.234,-149.5 560.234,-143.5 566.234,-137.5 572.234,-137.5"/>
<text text-anchor="middle" x="626.74" y="-236.3" font-family="Times,serif" font-size="14.00">BatchStudent</text>
<polyline fill="none" stroke="black" points="560.234,-229.5 693.245,-229.5 "/>
<text text-anchor="start" x="568.234" y="-214.3" font-family="Times,serif" font-size="14.00">id :integer</text>
<text text-anchor="start" x="568.234" y="-200.3" font-family="Times,serif" font-size="14.00">batch_id :integer</text>
<text text-anchor="start" x="568.234" y="-186.3" font-family="Times,serif" font-size="14.00">student_id :integer</text>
<text text-anchor="start" x="568.234" y="-172.3" font-family="Times,serif" font-size="14.00">student_fee :integer</text>
<text text-anchor="start" x="568.234" y="-158.3" font-family="Times,serif" font-size="14.00">created_at :datetime</text>
<text text-anchor="start" x="568.234" y="-144.3" font-family="Times,serif" font-size="14.00">updated_at :datetime</text>
</g>
<!-- Batch&#45;&gt;BatchStudent -->
<g id="edge5" class="edge"><title>Batch&#45;&gt;BatchStudent</title>
<path fill="none" stroke="#635c17" d="M472.642,-517.039C480.522,-507.503 487.803,-497.397 493.74,-487 539.182,-407.417 504.941,-369.035 547.74,-288 552.837,-278.349 559.095,-268.825 565.839,-259.77"/>
<ellipse fill="none" stroke="#635c17" cx="469.977" cy="-520.173" rx="4.00002" ry="4.00002"/>
<polygon fill="#635c17" stroke="#635c17" points="566.038,-259.512 575.711,-254.346 569.093,-255.554 572.149,-251.596 572.149,-251.596 572.149,-251.596 569.093,-255.554 568.587,-248.846 566.038,-259.512 566.038,-259.512"/>
</g>
<!-- BatchTutor -->
<g id="node5" class="node"><title>BatchTutor</title>
<path fill="none" stroke="black" d="M408.234,-144.5C408.234,-144.5 517.245,-144.5 517.245,-144.5 523.245,-144.5 529.245,-150.5 529.245,-156.5 529.245,-156.5 529.245,-232.5 529.245,-232.5 529.245,-238.5 523.245,-244.5 517.245,-244.5 517.245,-244.5 408.234,-244.5 408.234,-244.5 402.234,-244.5 396.234,-238.5 396.234,-232.5 396.234,-232.5 396.234,-156.5 396.234,-156.5 396.234,-150.5 402.234,-144.5 408.234,-144.5"/>
<text text-anchor="middle" x="462.74" y="-229.3" font-family="Times,serif" font-size="14.00">BatchTutor</text>
<polyline fill="none" stroke="black" points="396.234,-222.5 529.245,-222.5 "/>
<text text-anchor="start" x="404.234" y="-207.3" font-family="Times,serif" font-size="14.00">id :integer</text>
<text text-anchor="start" x="404.234" y="-193.3" font-family="Times,serif" font-size="14.00">batch_id :integer</text>
<text text-anchor="start" x="404.234" y="-179.3" font-family="Times,serif" font-size="14.00">tutor_id :integer</text>
<text text-anchor="start" x="404.234" y="-165.3" font-family="Times,serif" font-size="14.00">created_at :datetime</text>
<text text-anchor="start" x="404.234" y="-151.3" font-family="Times,serif" font-size="14.00">updated_at :datetime</text>
</g>
<!-- Batch&#45;&gt;BatchTutor -->
<g id="edge1" class="edge"><title>Batch&#45;&gt;BatchTutor</title>
<path fill="none" stroke="#9e77fd" d="M457.782,-516.536C463.455,-507.097 468.342,-497.152 471.74,-487 497.525,-409.953 487.449,-314.963 476.337,-254.797"/>
<ellipse fill="none" stroke="#9e77fd" cx="455.651" cy="-519.929" rx="4.00002" ry="4.00002"/>
<polygon fill="#9e77fd" stroke="#9e77fd" points="476.287,-254.536 478.825,-243.868 475.346,-249.625 474.405,-244.715 474.405,-244.715 474.405,-244.715 475.346,-249.625 469.985,-245.562 476.287,-254.536 476.287,-254.536"/>
</g>
<!-- Course -->
<g id="node6" class="node"><title>Course</title>
<path fill="none" stroke="black" d="M120.514,-330.5C120.514,-330.5 248.966,-330.5 248.966,-330.5 254.966,-330.5 260.966,-336.5 260.966,-342.5 260.966,-342.5 260.966,-432.5 260.966,-432.5 260.966,-438.5 254.966,-444.5 248.966,-444.5 248.966,-444.5 120.514,-444.5 120.514,-444.5 114.514,-444.5 108.514,-438.5 108.514,-432.5 108.514,-432.5 108.514,-342.5 108.514,-342.5 108.514,-336.5 114.514,-330.5 120.514,-330.5"/>
<text text-anchor="middle" x="184.74" y="-429.3" font-family="Times,serif" font-size="14.00">Course</text>
<polyline fill="none" stroke="black" points="108.514,-422.5 260.966,-422.5 "/>
<text text-anchor="start" x="116.514" y="-407.3" font-family="Times,serif" font-size="14.00">id :integer</text>
<text text-anchor="start" x="116.514" y="-393.3" font-family="Times,serif" font-size="14.00">course_name :string</text>
<text text-anchor="start" x="116.514" y="-379.3" font-family="Times,serif" font-size="14.00">course_type :string</text>
<text text-anchor="start" x="116.514" y="-365.3" font-family="Times,serif" font-size="14.00">course_duration :integer</text>
<text text-anchor="start" x="116.514" y="-351.3" font-family="Times,serif" font-size="14.00">created_at :datetime</text>
<text text-anchor="start" x="116.514" y="-337.3" font-family="Times,serif" font-size="14.00">updated_at :datetime</text>
</g>
<!-- Batch&#45;&gt;Course -->
<g id="edge4" class="edge"><title>Batch&#45;&gt;Course</title>
<path fill="none" stroke="#d8f38c" d="M307.998,-516.697C296.583,-506.975 285.229,-496.916 274.74,-487 263.17,-476.062 251.325,-463.897 240.186,-451.952"/>
<polygon fill="#d8f38c" stroke="#d8f38c" points="308.259,-516.917 312.998,-526.806 312.08,-520.142 315.9,-523.367 315.9,-523.367 315.9,-523.367 312.08,-520.142 318.803,-519.929 308.259,-516.917 308.259,-516.917"/>
<polygon fill="#d8f38c" stroke="#d8f38c" points="240.138,-451.9 236.656,-441.502 236.745,-448.228 233.351,-444.556 233.351,-444.556 233.351,-444.556 236.745,-448.228 230.046,-447.611 240.138,-451.9 240.138,-451.9"/>
</g>
<!-- Student -->
<g id="node12" class="node"><title>Student</title>
<path fill="none" stroke="black" d="M568.386,-316.5C568.386,-316.5 717.093,-316.5 717.093,-316.5 723.093,-316.5 729.093,-322.5 729.093,-328.5 729.093,-328.5 729.093,-446.5 729.093,-446.5 729.093,-452.5 723.093,-458.5 717.093,-458.5 717.093,-458.5 568.386,-458.5 568.386,-458.5 562.386,-458.5 556.386,-452.5 556.386,-446.5 556.386,-446.5 556.386,-328.5 556.386,-328.5 556.386,-322.5 562.386,-316.5 568.386,-316.5"/>
<text text-anchor="middle" x="642.74" y="-443.3" font-family="Times,serif" font-size="14.00">Student</text>
<polyline fill="none" stroke="black" points="556.386,-436.5 729.093,-436.5 "/>
<text text-anchor="start" x="564.386" y="-421.3" font-family="Times,serif" font-size="14.00">id :integer</text>
<text text-anchor="start" x="564.386" y="-407.3" font-family="Times,serif" font-size="14.00">student_name :string</text>
<text text-anchor="start" x="564.386" y="-393.3" font-family="Times,serif" font-size="14.00">student_qualification :string</text>
<text text-anchor="start" x="564.386" y="-379.3" font-family="Times,serif" font-size="14.00">email_id :string</text>
<text text-anchor="start" x="564.386" y="-365.3" font-family="Times,serif" font-size="14.00">phone_number :integer</text>
<text text-anchor="start" x="564.386" y="-351.3" font-family="Times,serif" font-size="14.00">address :text</text>
<text text-anchor="start" x="564.386" y="-337.3" font-family="Times,serif" font-size="14.00">created_at :datetime</text>
<text text-anchor="start" x="564.386" y="-323.3" font-family="Times,serif" font-size="14.00">updated_at :datetime</text>
</g>
<!-- Batch&#45;&gt;Student -->
<g id="edge6" class="edge"><title>Batch&#45;&gt;Student</title>
<path fill="none" stroke="#692855" d="M496.089,-522.344C512.046,-511.038 528.11,-499.026 542.74,-487 550.955,-480.247 559.276,-472.934 567.426,-465.448"/>
<polygon fill="#692855" stroke="#692855" points="495.948,-522.443 485.178,-524.505 491.855,-525.315 487.763,-528.188 487.763,-528.188 487.763,-528.188 491.855,-525.315 490.348,-531.871 495.948,-522.443 495.948,-522.443"/>
<polygon fill="#692855" stroke="#692855" points="567.535,-465.347 577.922,-461.83 571.196,-461.941 574.857,-458.535 574.857,-458.535 574.857,-458.535 571.196,-461.941 571.791,-455.241 567.535,-465.347 567.535,-465.347"/>
</g>
<!-- Tutor -->
<g id="node15" class="node"><title>Tutor</title>
<path fill="none" stroke="black" d="M328.621,-288.5C328.621,-288.5 450.859,-288.5 450.859,-288.5 456.859,-288.5 462.859,-294.5 462.859,-300.5 462.859,-300.5 462.859,-474.5 462.859,-474.5 462.859,-480.5 456.859,-486.5 450.859,-486.5 450.859,-486.5 328.621,-486.5 328.621,-486.5 322.621,-486.5 316.621,-480.5 316.621,-474.5 316.621,-474.5 316.621,-300.5 316.621,-300.5 316.621,-294.5 322.621,-288.5 328.621,-288.5"/>
<text text-anchor="middle" x="389.74" y="-471.3" font-family="Times,serif" font-size="14.00">Tutor</text>
<polyline fill="none" stroke="black" points="316.621,-464.5 462.859,-464.5 "/>
<text text-anchor="start" x="324.621" y="-449.3" font-family="Times,serif" font-size="14.00">id :integer</text>
<text text-anchor="start" x="324.621" y="-435.3" font-family="Times,serif" font-size="14.00">tutor_name :string</text>
<text text-anchor="start" x="324.621" y="-421.3" font-family="Times,serif" font-size="14.00">qualification :string</text>
<text text-anchor="start" x="324.621" y="-407.3" font-family="Times,serif" font-size="14.00">experience :string</text>
<text text-anchor="start" x="324.621" y="-393.3" font-family="Times,serif" font-size="14.00">address :text</text>
<text text-anchor="start" x="324.621" y="-379.3" font-family="Times,serif" font-size="14.00">gender :string</text>
<text text-anchor="start" x="324.621" y="-365.3" font-family="Times,serif" font-size="14.00">hourly_rate :integer</text>
<text text-anchor="start" x="324.621" y="-351.3" font-family="Times,serif" font-size="14.00">location :string</text>
<text text-anchor="start" x="324.621" y="-337.3" font-family="Times,serif" font-size="14.00">phone_number :integer</text>
<text text-anchor="start" x="324.621" y="-323.3" font-family="Times,serif" font-size="14.00">email_id :string</text>
<text text-anchor="start" x="324.621" y="-309.3" font-family="Times,serif" font-size="14.00">created_at :datetime</text>
<text text-anchor="start" x="324.621" y="-295.3" font-family="Times,serif" font-size="14.00">updated_at :datetime</text>
</g>
<!-- Batch&#45;&gt;Tutor -->
<g id="edge2" class="edge"><title>Batch&#45;&gt;Tutor</title>
<path fill="none" stroke="#a2addb" d="M394.152,-513.307C393.961,-507.905 393.766,-502.392 393.57,-496.84"/>
<polygon fill="#a2addb" stroke="#a2addb" points="394.152,-513.313 390.008,-523.466 394.329,-518.31 394.506,-523.307 394.506,-523.307 394.506,-523.307 394.329,-518.31 399.003,-523.148 394.152,-513.313 394.152,-513.313"/>
<polygon fill="#a2addb" stroke="#a2addb" points="393.569,-496.813 397.713,-486.66 393.392,-491.816 393.216,-486.819 393.216,-486.819 393.216,-486.819 393.392,-491.816 388.718,-486.978 393.569,-496.813 393.569,-496.813"/>
</g>
<!-- Course&#45;&gt;BatchCourse -->
<g id="edge7" class="edge"><title>Course&#45;&gt;BatchCourse</title>
<path fill="none" stroke="#91e825" d="M218.455,-323.367C230.466,-300.876 243.927,-275.669 255.703,-253.618"/>
<ellipse fill="none" stroke="#91e825" cx="216.538" cy="-326.956" rx="4.00002" ry="4.00002"/>
<polygon fill="#91e825" stroke="#91e825" points="255.755,-253.52 264.435,-246.819 258.11,-249.11 260.466,-244.699 260.466,-244.699 260.466,-244.699 258.11,-249.11 256.496,-242.58 255.755,-253.52 255.755,-253.52"/>
</g>
<!-- CourseSyllabus -->
<g id="node7" class="node"><title>CourseSyllabus</title>
<path fill="none" stroke="black" d="M79.2344,-0.5C79.2344,-0.5 188.245,-0.5 188.245,-0.5 194.245,-0.5 200.245,-6.5 200.245,-12.5 200.245,-12.5 200.245,-88.5 200.245,-88.5 200.245,-94.5 194.245,-100.5 188.245,-100.5 188.245,-100.5 79.2344,-100.5 79.2344,-100.5 73.2344,-100.5 67.2344,-94.5 67.2344,-88.5 67.2344,-88.5 67.2344,-12.5 67.2344,-12.5 67.2344,-6.5 73.2344,-0.5 79.2344,-0.5"/>
<text text-anchor="middle" x="133.74" y="-85.3" font-family="Times,serif" font-size="14.00">CourseSyllabus</text>
<polyline fill="none" stroke="black" points="67.2344,-78.5 200.245,-78.5 "/>
<text text-anchor="start" x="75.2344" y="-63.3" font-family="Times,serif" font-size="14.00">id :integer</text>
<text text-anchor="start" x="75.2344" y="-49.3" font-family="Times,serif" font-size="14.00">course_id :integer</text>
<text text-anchor="start" x="75.2344" y="-35.3" font-family="Times,serif" font-size="14.00">syllabus_id :integer</text>
<text text-anchor="start" x="75.2344" y="-21.3" font-family="Times,serif" font-size="14.00">created_at :datetime</text>
<text text-anchor="start" x="75.2344" y="-7.3" font-family="Times,serif" font-size="14.00">updated_at :datetime</text>
</g>
<!-- Course&#45;&gt;CourseSyllabus -->
<g id="edge8" class="edge"><title>Course&#45;&gt;CourseSyllabus</title>
<path fill="none" stroke="#fbd37a" d="M186.291,-321.97C186.157,-271.102 182.946,-198.704 168.74,-137 166.705,-128.162 163.861,-119.056 160.665,-110.233"/>
<ellipse fill="none" stroke="#fbd37a" cx="186.289" cy="-326.26" rx="4" ry="4"/>
<polygon fill="#fbd37a" stroke="#fbd37a" points="160.632,-110.144 161.288,-99.1974 158.856,-105.469 157.081,-100.795 157.081,-100.795 157.081,-100.795 158.856,-105.469 152.874,-102.393 160.632,-110.144 160.632,-110.144"/>
</g>
<!-- Syllabus -->
<g id="node14" class="node"><title>Syllabus</title>
<path fill="none" stroke="black" d="M12,-137.5C12,-137.5 147.479,-137.5 147.479,-137.5 153.479,-137.5 159.479,-143.5 159.479,-149.5 159.479,-149.5 159.479,-239.5 159.479,-239.5 159.479,-245.5 153.479,-251.5 147.479,-251.5 147.479,-251.5 12,-251.5 12,-251.5 6,-251.5 0,-245.5 0,-239.5 0,-239.5 0,-149.5 0,-149.5 0,-143.5 6,-137.5 12,-137.5"/>
<text text-anchor="middle" x="79.7397" y="-236.3" font-family="Times,serif" font-size="14.00">Syllabus</text>
<polyline fill="none" stroke="black" points="0,-229.5 159.479,-229.5 "/>
<text text-anchor="start" x="8" y="-214.3" font-family="Times,serif" font-size="14.00">id :integer</text>
<text text-anchor="start" x="8" y="-200.3" font-family="Times,serif" font-size="14.00">topics :string</text>
<text text-anchor="start" x="8" y="-186.3" font-family="Times,serif" font-size="14.00">syllabus_description :text</text>
<text text-anchor="start" x="8" y="-172.3" font-family="Times,serif" font-size="14.00">course_id :integer</text>
<text text-anchor="start" x="8" y="-158.3" font-family="Times,serif" font-size="14.00">created_at :datetime</text>
<text text-anchor="start" x="8" y="-144.3" font-family="Times,serif" font-size="14.00">updated_at :datetime</text>
</g>
<!-- Course&#45;&gt;Syllabus -->
<g id="edge9" class="edge"><title>Course&#45;&gt;Syllabus</title>
<path fill="none" stroke="#8961a9" d="M149.047,-321.574C138.2,-301.841 126.282,-280.162 115.434,-260.43"/>
<polygon fill="#8961a9" stroke="#8961a9" points="149.128,-321.721 150.002,-332.652 151.537,-326.103 153.946,-330.484 153.946,-330.484 153.946,-330.484 151.537,-326.103 157.889,-328.316 149.128,-321.721 149.128,-321.721"/>
<polygon fill="#8961a9" stroke="#8961a9" points="115.351,-260.278 114.477,-249.347 112.942,-255.896 110.533,-251.515 110.533,-251.515 110.533,-251.515 112.942,-255.896 106.59,-253.683 115.351,-260.278 115.351,-260.278"/>
</g>
<!-- FeesPaid -->
<g id="node8" class="node"><title>FeesPaid</title>
<path fill="none" stroke="black" d="M520.445,-709.5C520.445,-709.5 631.035,-709.5 631.035,-709.5 637.035,-709.5 643.035,-715.5 643.035,-721.5 643.035,-721.5 643.035,-811.5 643.035,-811.5 643.035,-817.5 637.035,-823.5 631.035,-823.5 631.035,-823.5 520.445,-823.5 520.445,-823.5 514.445,-823.5 508.445,-817.5 508.445,-811.5 508.445,-811.5 508.445,-721.5 508.445,-721.5 508.445,-715.5 514.445,-709.5 520.445,-709.5"/>
<text text-anchor="middle" x="575.74" y="-808.3" font-family="Times,serif" font-size="14.00">FeesPaid</text>
<polyline fill="none" stroke="black" points="508.445,-801.5 643.035,-801.5 "/>
<text text-anchor="start" x="516.445" y="-786.3" font-family="Times,serif" font-size="14.00">id :integer</text>
<text text-anchor="start" x="516.445" y="-772.3" font-family="Times,serif" font-size="14.00">payment_type :string</text>
<text text-anchor="start" x="516.445" y="-758.3" font-family="Times,serif" font-size="14.00">payment_date :date</text>
<text text-anchor="start" x="516.445" y="-744.3" font-family="Times,serif" font-size="14.00">amount :integer</text>
<text text-anchor="start" x="516.445" y="-730.3" font-family="Times,serif" font-size="14.00">created_at :datetime</text>
<text text-anchor="start" x="516.445" y="-716.3" font-family="Times,serif" font-size="14.00">updated_at :datetime</text>
</g>
<!-- Project -->
<g id="node9" class="node"><title>Project</title>
<path fill="none" stroke="black" d="M759.51,-323.5C759.51,-323.5 887.969,-323.5 887.969,-323.5 893.969,-323.5 899.969,-329.5 899.969,-335.5 899.969,-335.5 899.969,-439.5 899.969,-439.5 899.969,-445.5 893.969,-451.5 887.969,-451.5 887.969,-451.5 759.51,-451.5 759.51,-451.5 753.51,-451.5 747.51,-445.5 747.51,-439.5 747.51,-439.5 747.51,-335.5 747.51,-335.5 747.51,-329.5 753.51,-323.5 759.51,-323.5"/>
<text text-anchor="middle" x="823.74" y="-436.3" font-family="Times,serif" font-size="14.00">Project</text>
<polyline fill="none" stroke="black" points="747.51,-429.5 899.969,-429.5 "/>
<text text-anchor="start" x="755.51" y="-414.3" font-family="Times,serif" font-size="14.00">id :integer</text>
<text text-anchor="start" x="755.51" y="-400.3" font-family="Times,serif" font-size="14.00">project_name :string</text>
<text text-anchor="start" x="755.51" y="-386.3" font-family="Times,serif" font-size="14.00">project_description :text</text>
<text text-anchor="start" x="755.51" y="-372.3" font-family="Times,serif" font-size="14.00">project_start_date :date</text>
<text text-anchor="start" x="755.51" y="-358.3" font-family="Times,serif" font-size="14.00">project_status :date</text>
<text text-anchor="start" x="755.51" y="-344.3" font-family="Times,serif" font-size="14.00">created_at :datetime</text>
<text text-anchor="start" x="755.51" y="-330.3" font-family="Times,serif" font-size="14.00">updated_at :datetime</text>
</g>
<!-- ProjectInvolvedByStudent -->
<g id="node10" class="node"><title>ProjectInvolvedByStudent</title>
<path fill="none" stroke="black" d="M574.471,-537.5C574.471,-537.5 715.009,-537.5 715.009,-537.5 721.009,-537.5 727.009,-543.5 727.009,-549.5 727.009,-549.5 727.009,-625.5 727.009,-625.5 727.009,-631.5 721.009,-637.5 715.009,-637.5 715.009,-637.5 574.471,-637.5 574.471,-637.5 568.471,-637.5 562.471,-631.5 562.471,-625.5 562.471,-625.5 562.471,-549.5 562.471,-549.5 562.471,-543.5 568.471,-537.5 574.471,-537.5"/>
<text text-anchor="middle" x="644.74" y="-622.3" font-family="Times,serif" font-size="14.00">ProjectInvolvedByStudent</text>
<polyline fill="none" stroke="black" points="562.471,-615.5 727.009,-615.5 "/>
<text text-anchor="start" x="570.471" y="-600.3" font-family="Times,serif" font-size="14.00">id :integer</text>
<text text-anchor="start" x="570.471" y="-586.3" font-family="Times,serif" font-size="14.00">student_id :integer</text>
<text text-anchor="start" x="570.471" y="-572.3" font-family="Times,serif" font-size="14.00">project_id :integer</text>
<text text-anchor="start" x="570.471" y="-558.3" font-family="Times,serif" font-size="14.00">created_at :datetime</text>
<text text-anchor="start" x="570.471" y="-544.3" font-family="Times,serif" font-size="14.00">updated_at :datetime</text>
</g>
<!-- ProjectInvolvedByStudent&#45;&gt;Project -->
<g id="edge10" class="edge"><title>ProjectInvolvedByStudent&#45;&gt;Project</title>
<path fill="none" stroke="#795aac" d="M696.879,-531.384C710.291,-517.024 724.633,-501.508 737.74,-487 745.845,-478.028 754.301,-468.526 762.609,-459.102"/>
<ellipse fill="none" stroke="#795aac" cx="693.926" cy="-534.54" rx="4.00002" ry="4.00002"/>
<polygon fill="#795aac" stroke="#795aac" points="762.627,-459.081 772.611,-454.545 765.93,-455.327 769.232,-451.573 769.232,-451.573 769.232,-451.573 765.93,-455.327 765.853,-448.601 762.627,-459.081 762.627,-459.081"/>
</g>
<!-- ProjectInvolvedByStudent&#45;&gt;Student -->
<g id="edge11" class="edge"><title>ProjectInvolvedByStudent&#45;&gt;Student</title>
<path fill="none" stroke="#f5e57a" d="M644.16,-529.058C643.97,-510.267 643.755,-489.035 643.552,-468.873"/>
<ellipse fill="none" stroke="#f5e57a" cx="644.202" cy="-533.302" rx="4" ry="4"/>
<polygon fill="#f5e57a" stroke="#f5e57a" points="643.551,-468.761 647.949,-458.716 643.5,-463.762 643.449,-458.762 643.449,-458.762 643.449,-458.762 643.5,-463.762 638.95,-458.807 643.551,-468.761 643.551,-468.761"/>
</g>
<!-- ProjectStatus -->
<g id="node11" class="node"><title>ProjectStatus</title>
<path fill="none" stroke="black" d="M759.51,-537.5C759.51,-537.5 887.969,-537.5 887.969,-537.5 893.969,-537.5 899.969,-543.5 899.969,-549.5 899.969,-549.5 899.969,-625.5 899.969,-625.5 899.969,-631.5 893.969,-637.5 887.969,-637.5 887.969,-637.5 759.51,-637.5 759.51,-637.5 753.51,-637.5 747.51,-631.5 747.51,-625.5 747.51,-625.5 747.51,-549.5 747.51,-549.5 747.51,-543.5 753.51,-537.5 759.51,-537.5"/>
<text text-anchor="middle" x="823.74" y="-622.3" font-family="Times,serif" font-size="14.00">ProjectStatus</text>
<polyline fill="none" stroke="black" points="747.51,-615.5 899.969,-615.5 "/>
<text text-anchor="start" x="755.51" y="-600.3" font-family="Times,serif" font-size="14.00">id :integer</text>
<text text-anchor="start" x="755.51" y="-586.3" font-family="Times,serif" font-size="14.00">project_id :integer</text>
<text text-anchor="start" x="755.51" y="-572.3" font-family="Times,serif" font-size="14.00">project_description :text</text>
<text text-anchor="start" x="755.51" y="-558.3" font-family="Times,serif" font-size="14.00">created_at :datetime</text>
<text text-anchor="start" x="755.51" y="-544.3" font-family="Times,serif" font-size="14.00">updated_at :datetime</text>
</g>
<!-- ProjectStatus&#45;&gt;Project -->
<g id="edge12" class="edge"><title>ProjectStatus&#45;&gt;Project</title>
<path fill="none" stroke="#951b17" d="M823.74,-529.236C823.74,-508.182 823.74,-484.044 823.74,-461.773"/>
<ellipse fill="none" stroke="#951b17" cx="823.74" cy="-533.302" rx="4" ry="4"/>
<polygon fill="#951b17" stroke="#951b17" points="823.74,-461.69 828.24,-451.69 823.74,-456.69 823.74,-451.69 823.74,-451.69 823.74,-451.69 823.74,-456.69 819.24,-451.69 823.74,-461.69 823.74,-461.69"/>
</g>
<!-- Student&#45;&gt;BatchStudent -->
<g id="edge13" class="edge"><title>Student&#45;&gt;BatchStudent</title>
<path fill="none" stroke="#ab0f3a" d="M636.197,-308.402C634.907,-292.992 633.563,-276.956 632.308,-261.973"/>
<ellipse fill="none" stroke="#ab0f3a" cx="636.539" cy="-312.477" rx="4" ry="4"/>
<polygon fill="#ab0f3a" stroke="#ab0f3a" points="632.29,-261.754 635.939,-251.414 631.873,-256.772 631.455,-251.789 631.455,-251.789 631.455,-251.789 631.873,-256.772 626.971,-252.165 632.29,-261.754 632.29,-261.754"/>
</g>
<!-- StudentEvaluation -->
<g id="node13" class="node"><title>StudentEvaluation</title>
<path fill="none" stroke="black" d="M315.017,-688.5C315.017,-688.5 478.462,-688.5 478.462,-688.5 484.462,-688.5 490.462,-694.5 490.462,-700.5 490.462,-700.5 490.462,-832.5 490.462,-832.5 490.462,-838.5 484.462,-844.5 478.462,-844.5 478.462,-844.5 315.017,-844.5 315.017,-844.5 309.017,-844.5 303.017,-838.5 303.017,-832.5 303.017,-832.5 303.017,-700.5 303.017,-700.5 303.017,-694.5 309.017,-688.5 315.017,-688.5"/>
<text text-anchor="middle" x="396.74" y="-829.3" font-family="Times,serif" font-size="14.00">StudentEvaluation</text>
<polyline fill="none" stroke="black" points="303.017,-822.5 490.462,-822.5 "/>
<text text-anchor="start" x="311.017" y="-807.3" font-family="Times,serif" font-size="14.00">id :integer</text>
<text text-anchor="start" x="311.017" y="-793.3" font-family="Times,serif" font-size="14.00">student_id :integer</text>
<text text-anchor="start" x="311.017" y="-779.3" font-family="Times,serif" font-size="14.00">course_id :integer</text>
<text text-anchor="start" x="311.017" y="-765.3" font-family="Times,serif" font-size="14.00">batch_id :integer</text>
<text text-anchor="start" x="311.017" y="-751.3" font-family="Times,serif" font-size="14.00">hours_spent :integer</text>
<text text-anchor="start" x="311.017" y="-737.3" font-family="Times,serif" font-size="14.00">remarks :text</text>
<text text-anchor="start" x="311.017" y="-723.3" font-family="Times,serif" font-size="14.00">mock_interview_remarks :text</text>
<text text-anchor="start" x="311.017" y="-709.3" font-family="Times,serif" font-size="14.00">created_at :datetime</text>
<text text-anchor="start" x="311.017" y="-695.3" font-family="Times,serif" font-size="14.00">updated_at :datetime</text>
</g>
<!-- StudentEvaluation&#45;&gt;Batch -->
<g id="edge16" class="edge"><title>StudentEvaluation&#45;&gt;Batch</title>
<path fill="none" stroke="#5646c3" d="M396.74,-680.278C396.74,-674.081 396.74,-667.863 396.74,-661.745"/>
<ellipse fill="none" stroke="#5646c3" cx="396.74" cy="-684.38" rx="4" ry="4"/>
<polygon fill="#5646c3" stroke="#5646c3" points="396.74,-661.566 401.24,-651.566 396.74,-656.566 396.74,-651.566 396.74,-651.566 396.74,-651.566 396.74,-656.566 392.24,-651.566 396.74,-661.566 396.74,-661.566"/>
</g>
<!-- StudentEvaluation&#45;&gt;Course -->
<g id="edge15" class="edge"><title>StudentEvaluation&#45;&gt;Course</title>
<path fill="none" stroke="#a60128" d="M318.025,-682.008C310.38,-672.225 303.112,-662.117 296.74,-652 257.004,-588.913 225.383,-509.294 206.008,-454.174"/>
<ellipse fill="none" stroke="#a60128" cx="320.607" cy="-685.255" rx="4.00002" ry="4.00002"/>
<polygon fill="#a60128" stroke="#a60128" points="205.935,-453.965 206.902,-443.042 204.294,-449.242 202.652,-444.52 202.652,-444.52 202.652,-444.52 204.294,-449.242 198.401,-445.997 205.935,-453.965 205.935,-453.965"/>
</g>
<!-- StudentEvaluation&#45;&gt;Student -->
<g id="edge14" class="edge"><title>StudentEvaluation&#45;&gt;Student</title>
<path fill="none" stroke="#e02e0b" d="M475.31,-681.916C482.982,-672.15 490.296,-662.072 496.74,-652 530.52,-599.2 523.672,-577.998 553.74,-523 563.84,-504.526 575.685,-485.3 587.379,-467.358"/>
<ellipse fill="none" stroke="#e02e0b" cx="472.719" cy="-685.159" rx="4.00002" ry="4.00002"/>
<polygon fill="#e02e0b" stroke="#e02e0b" points="587.604,-467.017 596.859,-461.136 590.351,-462.84 593.099,-458.663 593.099,-458.663 593.099,-458.663 590.351,-462.84 589.34,-456.19 587.604,-467.017 587.604,-467.017"/>
</g>
<!-- Syllabus&#45;&gt;CourseSyllabus -->
<g id="edge17" class="edge"><title>Syllabus&#45;&gt;CourseSyllabus</title>
<path fill="none" stroke="#03c7ec" d="M104.018,-129.658C106.436,-123.299 108.884,-116.862 111.283,-110.554"/>
<ellipse fill="none" stroke="#03c7ec" cx="102.504" cy="-133.639" rx="4.00001" ry="4.00001"/>
<polygon fill="#03c7ec" stroke="#03c7ec" points="111.445,-110.126 119.206,-102.378 113.223,-105.452 115,-100.779 115,-100.779 115,-100.779 113.223,-105.452 110.794,-99.1791 111.445,-110.126 111.445,-110.126"/>
</g>
<!-- Tutor&#45;&gt;BatchTutor -->
<g id="edge18" class="edge"><title>Tutor&#45;&gt;BatchTutor</title>
<path fill="none" stroke="#5b0918" d="M430.193,-280.658C433.672,-271.554 437.103,-262.578 440.357,-254.064"/>
<ellipse fill="none" stroke="#5b0918" cx="428.63" cy="-284.746" rx="4.00001" ry="4.00001"/>
<polygon fill="#5b0918" stroke="#5b0918" points="440.378,-254.008 448.152,-246.273 442.163,-249.337 443.948,-244.667 443.948,-244.667 443.948,-244.667 442.163,-249.337 439.745,-243.06 440.378,-254.008 440.378,-254.008"/>
</g>
</g>
</svg>
