<?xml version="1.0" encoding="UTF-8" standalone="no"?>
<!DOCTYPE svg PUBLIC "-//W3C//DTD SVG 1.1//EN"
 "http://www.w3.org/Graphics/SVG/1.1/DTD/svg11.dtd">
<!-- Generated by graphviz version 2.38.0 (20140413.2041)
 -->
<!-- Title: models_diagram Pages: 1 -->
<svg width="735pt" height="369pt"
 viewBox="0.00 0.00 735.23 369.00" xmlns="http://www.w3.org/2000/svg" xmlns:xlink="http://www.w3.org/1999/xlink">
<g id="graph0" class="graph" transform="scale(1 1) rotate(0) translate(4 365)">
<title>models_diagram</title>
<polygon fill="none" stroke="none" points="-4,4 -4,-365 731.227,-365 731.227,4 -4,4"/>
<!-- _diagram_info -->
<g id="node1" class="node"><title>_diagram_info</title>
<text text-anchor="start" x="8" y="-346.6" font-family="Times,serif" font-size="13.00">Models diagram</text>
<text text-anchor="start" x="8" y="-333.6" font-family="Times,serif" font-size="13.00">Date: Sep 25 2015 &#45; 12:34</text>
<text text-anchor="start" x="8" y="-320.6" font-family="Times,serif" font-size="13.00">Migration version: 20150925063611</text>
<text text-anchor="start" x="8" y="-307.6" font-family="Times,serif" font-size="13.00">Generated by RailRoady 1.3.1</text>
<text text-anchor="start" x="8" y="-294.6" font-family="Times,serif" font-size="13.00">http://railroady.prestonlee.com</text>
</g>
<!-- Batch -->
<g id="node2" class="node"><title>Batch</title>
<ellipse fill="none" stroke="black" cx="300.45" cy="-234" rx="30.9706" ry="18"/>
<text text-anchor="middle" x="300.45" y="-229.8" font-family="Times,serif" font-size="14.00">Batch</text>
</g>
<!-- BatchCourse -->
<g id="node3" class="node"><title>BatchCourse</title>
<ellipse fill="none" stroke="black" cx="230.45" cy="-90" rx="55.5768" ry="18"/>
<text text-anchor="middle" x="230.45" y="-85.8" font-family="Times,serif" font-size="14.00">BatchCourse</text>
</g>
<!-- Batch&#45;&gt;BatchCourse -->
<g id="edge3" class="edge"><title>Batch&#45;&gt;BatchCourse</title>
<path fill="none" stroke="#67acb5" d="M282.7,-211.15C275.762,-201.915 268.126,-190.808 262.45,-180 251.934,-159.978 243.471,-135.737 237.895,-117.614"/>
<ellipse fill="none" stroke="#67acb5" cx="285.153" cy="-214.342" rx="4.00002" ry="4.00002"/>
<polygon fill="#67acb5" stroke="#67acb5" points="237.882,-117.568 239.339,-106.7 236.454,-112.776 235.026,-107.985 235.026,-107.985 235.026,-107.985 236.454,-112.776 230.714,-109.269 237.882,-117.568 237.882,-117.568"/>
</g>
<!-- BatchStudent -->
<g id="node4" class="node"><title>BatchStudent</title>
<ellipse fill="none" stroke="black" cx="480.45" cy="-90" rx="57.5151" ry="18"/>
<text text-anchor="middle" x="480.45" y="-85.8" font-family="Times,serif" font-size="14.00">BatchStudent</text>
</g>
<!-- Batch&#45;&gt;BatchStudent -->
<g id="edge5" class="edge"><title>Batch&#45;&gt;BatchStudent</title>
<path fill="none" stroke="#c56854" d="M324.32,-214.169C357.331,-188.127 416.825,-141.192 452.07,-113.389"/>
<ellipse fill="none" stroke="#c56854" cx="321.177" cy="-216.648" rx="4.00002" ry="4.00002"/>
<polygon fill="#c56854" stroke="#c56854" points="452.201,-113.285 462.84,-110.624 456.127,-110.188 460.052,-107.091 460.052,-107.091 460.052,-107.091 456.127,-110.188 457.265,-103.558 452.201,-113.285 452.201,-113.285"/>
</g>
<!-- BatchTutor -->
<g id="node5" class="node"><title>BatchTutor</title>
<ellipse fill="none" stroke="black" cx="354.45" cy="-90" rx="50.1504" ry="18"/>
<text text-anchor="middle" x="354.45" y="-85.8" font-family="Times,serif" font-size="14.00">BatchTutor</text>
</g>
<!-- Batch&#45;&gt;BatchTutor -->
<g id="edge1" class="edge"><title>Batch&#45;&gt;BatchTutor</title>
<path fill="none" stroke="#bdbc9d" d="M319.647,-210.912C326.571,-201.872 333.812,-190.969 338.45,-180 346.791,-160.269 350.786,-136.286 352.698,-118.19"/>
<ellipse fill="none" stroke="#bdbc9d" cx="316.953" cy="-214.3" rx="4.00002" ry="4.00002"/>
<polygon fill="#bdbc9d" stroke="#bdbc9d" points="352.716,-117.992 358.102,-108.44 353.168,-113.013 353.62,-108.033 353.62,-108.033 353.62,-108.033 353.168,-113.013 349.138,-107.626 352.716,-117.992 352.716,-117.992"/>
</g>
<!-- Course -->
<g id="node6" class="node"><title>Course</title>
<ellipse fill="none" stroke="black" cx="180.45" cy="-162" rx="35.3216" ry="18"/>
<text text-anchor="middle" x="180.45" y="-157.8" font-family="Times,serif" font-size="14.00">Course</text>
</g>
<!-- Batch&#45;&gt;Course -->
<g id="edge4" class="edge"><title>Batch&#45;&gt;Course</title>
<path fill="none" stroke="#705ab3" d="M270.471,-215.512C252.67,-205.129 230.12,-191.974 212.043,-181.429"/>
<polygon fill="#705ab3" stroke="#705ab3" points="270.635,-215.608 277.005,-224.534 274.953,-218.127 279.272,-220.647 279.272,-220.647 279.272,-220.647 274.953,-218.127 281.54,-216.76 270.635,-215.608 270.635,-215.608"/>
<polygon fill="#705ab3" stroke="#705ab3" points="211.684,-181.22 205.314,-172.294 207.365,-178.701 203.046,-176.181 203.046,-176.181 203.046,-176.181 207.365,-178.701 200.779,-180.068 211.684,-181.22 211.684,-181.22"/>
</g>
<!-- Student -->
<g id="node12" class="node"><title>Student</title>
<ellipse fill="none" stroke="black" cx="469.45" cy="-162" rx="37.2594" ry="18"/>
<text text-anchor="middle" x="469.45" y="-157.8" font-family="Times,serif" font-size="14.00">Student</text>
</g>
<!-- Batch&#45;&gt;Student -->
<g id="edge6" class="edge"><title>Batch&#45;&gt;Student</title>
<path fill="none" stroke="#45c60e" d="M334.331,-218.966C362.776,-207.185 403.339,-190.383 432.589,-178.268"/>
<polygon fill="#45c60e" stroke="#45c60e" points="334.263,-218.995 323.302,-218.664 329.643,-220.908 325.024,-222.821 325.024,-222.821 325.024,-222.821 329.643,-220.908 326.746,-226.979 334.263,-218.995 334.263,-218.995"/>
<polygon fill="#45c60e" stroke="#45c60e" points="432.803,-178.179 443.764,-178.51 437.422,-176.266 442.041,-174.353 442.041,-174.353 442.041,-174.353 437.422,-176.266 440.319,-170.195 432.803,-178.179 432.803,-178.179"/>
</g>
<!-- Tutor -->
<g id="node15" class="node"><title>Tutor</title>
<ellipse fill="none" stroke="black" cx="300.45" cy="-162" rx="29.3953" ry="18"/>
<text text-anchor="middle" x="300.45" y="-157.8" font-family="Times,serif" font-size="14.00">Tutor</text>
</g>
<!-- Batch&#45;&gt;Tutor -->
<g id="edge2" class="edge"><title>Batch&#45;&gt;Tutor</title>
<path fill="none" stroke="#e60ce0" d="M300.45,-205.665C300.45,-200.687 300.45,-195.491 300.45,-190.507"/>
<polygon fill="#e60ce0" stroke="#e60ce0" points="300.45,-205.697 295.95,-215.697 300.45,-210.697 300.45,-215.697 300.45,-215.697 300.45,-215.697 300.45,-210.697 304.95,-215.697 300.45,-205.697 300.45,-205.697"/>
<polygon fill="#e60ce0" stroke="#e60ce0" points="300.45,-190.104 304.95,-180.104 300.45,-185.104 300.45,-180.104 300.45,-180.104 300.45,-180.104 300.45,-185.104 295.95,-180.104 300.45,-190.104 300.45,-190.104"/>
</g>
<!-- Course&#45;&gt;BatchCourse -->
<g id="edge7" class="edge"><title>Course&#45;&gt;BatchCourse</title>
<path fill="none" stroke="#eb5a98" d="M196.763,-138.161C201.872,-131.008 207.535,-123.081 212.736,-115.8"/>
<ellipse fill="none" stroke="#eb5a98" cx="194.371" cy="-141.51" rx="4.00002" ry="4.00002"/>
<polygon fill="#eb5a98" stroke="#eb5a98" points="212.756,-115.771 222.231,-110.249 215.662,-111.702 218.569,-107.633 218.569,-107.633 218.569,-107.633 215.662,-111.702 214.907,-105.018 212.756,-115.771 212.756,-115.771"/>
</g>
<!-- Syllabus -->
<g id="node14" class="node"><title>Syllabus</title>
<ellipse fill="none" stroke="black" cx="77.4497" cy="-90" rx="40.6421" ry="18"/>
<text text-anchor="middle" x="77.4497" y="-85.8" font-family="Times,serif" font-size="14.00">Syllabus</text>
</g>
<!-- Course&#45;&gt;Syllabus -->
<g id="edge9" class="edge"><title>Course&#45;&gt;Syllabus</title>
<path fill="none" stroke="#98f796" d="M151.746,-141.493C137.853,-132.051 121.186,-120.724 107.163,-111.193"/>
<polygon fill="#98f796" stroke="#98f796" points="151.829,-141.549 157.571,-150.892 155.965,-144.36 160.1,-147.17 160.1,-147.17 160.1,-147.17 155.965,-144.36 162.63,-143.448 151.829,-141.549 151.829,-141.549"/>
<polygon fill="#98f796" stroke="#98f796" points="107.091,-111.145 101.35,-101.802 102.956,-108.334 98.8207,-105.524 98.8207,-105.524 98.8207,-105.524 102.956,-108.334 96.2913,-109.246 107.091,-111.145 107.091,-111.145"/>
</g>
<!-- Coursesyllabus -->
<g id="node16" class="node"><title>Coursesyllabus</title>
<ellipse fill="none" stroke="black" cx="111.45" cy="-18" rx="64.296" ry="18"/>
<text text-anchor="middle" x="111.45" y="-13.8" font-family="Times,serif" font-size="14.00">Coursesyllabus</text>
</g>
<!-- Course&#45;&gt;Coursesyllabus -->
<g id="edge8" class="edge"><title>Course&#45;&gt;Coursesyllabus</title>
<path fill="none" stroke="#43cecf" d="M168.898,-137.226C156.49,-111.691 136.836,-71.2433 124.04,-44.9108"/>
<ellipse fill="none" stroke="#43cecf" cx="170.651" cy="-140.835" rx="4.00002" ry="4.00002"/>
<polygon fill="#43cecf" stroke="#43cecf" points="124.033,-44.8961 123.71,-33.935 121.848,-40.3989 119.663,-35.9017 119.663,-35.9017 119.663,-35.9017 121.848,-40.3989 115.615,-37.8685 124.033,-44.8961 124.033,-44.8961"/>
</g>
<!-- CourseSyllabus -->
<g id="node7" class="node"><title>CourseSyllabus</title>
<ellipse fill="none" stroke="black" cx="459.45" cy="-324.5" rx="65.7495" ry="18"/>
<text text-anchor="middle" x="459.45" y="-320.3" font-family="Times,serif" font-size="14.00">CourseSyllabus</text>
</g>
<!-- FeesPaid -->
<g id="node8" class="node"><title>FeesPaid</title>
<ellipse fill="none" stroke="black" cx="585.45" cy="-324.5" rx="42.0784" ry="18"/>
<text text-anchor="middle" x="585.45" y="-320.3" font-family="Times,serif" font-size="14.00">FeesPaid</text>
</g>
<!-- Project -->
<g id="node9" class="node"><title>Project</title>
<ellipse fill="none" stroke="black" cx="622.45" cy="-162" rx="35.3129" ry="18"/>
<text text-anchor="middle" x="622.45" y="-157.8" font-family="Times,serif" font-size="14.00">Project</text>
</g>
<!-- ProjectInvolvedByStudent -->
<g id="node10" class="node"><title>ProjectInvolvedByStudent</title>
<ellipse fill="none" stroke="black" cx="491.45" cy="-234" rx="103.87" ry="18"/>
<text text-anchor="middle" x="491.45" y="-229.8" font-family="Times,serif" font-size="14.00">ProjectInvolvedByStudent</text>
</g>
<!-- ProjectInvolvedByStudent&#45;&gt;Project -->
<g id="edge10" class="edge"><title>ProjectInvolvedByStudent&#45;&gt;Project</title>
<path fill="none" stroke="#a349f2" d="M528.923,-212.976C548.155,-202.7 571.358,-190.301 589.842,-180.424"/>
<ellipse fill="none" stroke="#a349f2" cx="525.361" cy="-214.879" rx="4.00002" ry="4.00002"/>
<polygon fill="#a349f2" stroke="#a349f2" points="589.945,-180.369 600.885,-179.625 594.355,-178.013 598.765,-175.656 598.765,-175.656 598.765,-175.656 594.355,-178.013 596.644,-171.687 589.945,-180.369 589.945,-180.369"/>
</g>
<!-- ProjectInvolvedByStudent&#45;&gt;Student -->
<g id="edge11" class="edge"><title>ProjectInvolvedByStudent&#45;&gt;Student</title>
<path fill="none" stroke="#48af8e" d="M483.567,-207.92C481.71,-202.01 479.723,-195.689 477.844,-189.71"/>
<ellipse fill="none" stroke="#48af8e" cx="484.812" cy="-211.881" rx="4.00001" ry="4.00001"/>
<polygon fill="#48af8e" stroke="#48af8e" points="477.824,-189.644 479.118,-178.755 476.325,-184.874 474.825,-180.104 474.825,-180.104 474.825,-180.104 476.325,-184.874 470.532,-181.454 477.824,-189.644 477.824,-189.644"/>
</g>
<!-- ProjectStatus -->
<g id="node11" class="node"><title>ProjectStatus</title>
<ellipse fill="none" stroke="black" cx="670.45" cy="-234" rx="56.5545" ry="18"/>
<text text-anchor="middle" x="670.45" y="-229.8" font-family="Times,serif" font-size="14.00">ProjectStatus</text>
</g>
<!-- ProjectStatus&#45;&gt;Project -->
<g id="edge12" class="edge"><title>ProjectStatus&#45;&gt;Project</title>
<path fill="none" stroke="#99adfd" d="M654.113,-209.176C649.371,-202.26 644.182,-194.693 639.403,-187.723"/>
<ellipse fill="none" stroke="#99adfd" cx="656.568" cy="-212.756" rx="4.00002" ry="4.00002"/>
<polygon fill="#99adfd" stroke="#99adfd" points="639.287,-187.554 637.343,-176.762 636.459,-183.431 633.632,-179.307 633.632,-179.307 633.632,-179.307 636.459,-183.431 629.92,-181.852 639.287,-187.554 639.287,-187.554"/>
</g>
<!-- Student&#45;&gt;BatchStudent -->
<g id="edge13" class="edge"><title>Student&#45;&gt;BatchStudent</title>
<path fill="none" stroke="#1f3b11" d="M473.435,-135.64C474.334,-129.92 475.291,-123.828 476.2,-118.042"/>
<ellipse fill="none" stroke="#1f3b11" cx="472.79" cy="-139.745" rx="4.00001" ry="4.00001"/>
<polygon fill="#1f3b11" stroke="#1f3b11" points="476.209,-117.983 482.207,-108.803 476.986,-113.044 477.762,-108.104 477.762,-108.104 477.762,-108.104 476.986,-113.044 473.316,-107.406 476.209,-117.983 476.209,-117.983"/>
</g>
<!-- Student&#45;&gt;Student -->
<g id="edge14" class="edge"><title>Student&#45;&gt;Student</title>
<path fill="none" stroke="#a4ecc1" d="M505.977,-175.45C516.476,-174.935 524.579,-170.452 524.579,-162 524.579,-153.548 516.476,-149.065 505.977,-148.55"/>
<polygon fill="#a4ecc1" stroke="#a4ecc1" points="505.806,-175.439 496.11,-170.316 500.816,-175.123 495.826,-174.807 495.826,-174.807 495.826,-174.807 500.816,-175.123 495.541,-179.298 505.806,-175.439 505.806,-175.439"/>
<polygon fill="#a4ecc1" stroke="#a4ecc1" points="505.806,-148.561 495.541,-144.702 500.816,-148.877 495.826,-149.193 495.826,-149.193 495.826,-149.193 500.816,-148.877 496.11,-153.684 505.806,-148.561 505.806,-148.561"/>
</g>
<!-- StudentEvaluation -->
<g id="node13" class="node"><title>StudentEvaluation</title>
<ellipse fill="none" stroke="black" cx="300.45" cy="-324.5" rx="75.3794" ry="18"/>
<text text-anchor="middle" x="300.45" y="-320.3" font-family="Times,serif" font-size="14.00">StudentEvaluation</text>
</g>
<!-- StudentEvaluation&#45;&gt;Batch -->
<g id="edge17" class="edge"><title>StudentEvaluation&#45;&gt;Batch</title>
<path fill="none" stroke="#e5911e" d="M300.45,-298.189C300.45,-286.971 300.45,-273.752 300.45,-262.311"/>
<ellipse fill="none" stroke="#e5911e" cx="300.45" cy="-302.436" rx="4" ry="4"/>
<polygon fill="#e5911e" stroke="#e5911e" points="300.45,-262.011 304.95,-252.011 300.45,-257.011 300.45,-252.011 300.45,-252.011 300.45,-252.011 300.45,-257.011 295.95,-252.011 300.45,-262.011 300.45,-262.011"/>
</g>
<!-- StudentEvaluation&#45;&gt;Course -->
<g id="edge16" class="edge"><title>StudentEvaluation&#45;&gt;Course</title>
<path fill="none" stroke="#e01943" d="M282.878,-299.998C260.402,-269.937 221.659,-218.117 198.81,-187.557"/>
<ellipse fill="none" stroke="#e01943" cx="285.439" cy="-303.423" rx="4.00002" ry="4.00002"/>
<polygon fill="#e01943" stroke="#e01943" points="198.527,-187.178 196.143,-176.475 195.533,-183.174 192.539,-179.169 192.539,-179.169 192.539,-179.169 195.533,-183.174 188.935,-181.864 198.527,-187.178 198.527,-187.178"/>
</g>
<!-- StudentEvaluation&#45;&gt;Student -->
<g id="edge15" class="edge"><title>StudentEvaluation&#45;&gt;Student</title>
<path fill="none" stroke="#e1268b" d="M313.896,-299.404C327.81,-276.022 351.29,-240.563 378.45,-216 394.846,-201.171 416.057,-188.525 433.875,-179.31"/>
<ellipse fill="none" stroke="#e1268b" cx="311.742" cy="-303.089" rx="4.00002" ry="4.00002"/>
<polygon fill="#e1268b" stroke="#e1268b" points="433.902,-179.296 444.858,-178.832 438.371,-177.053 442.84,-174.81 442.84,-174.81 442.84,-174.81 438.371,-177.053 440.821,-170.788 433.902,-179.296 433.902,-179.296"/>
</g>
<!-- Syllabus&#45;&gt;Coursesyllabus -->
<g id="edge18" class="edge"><title>Syllabus&#45;&gt;Coursesyllabus</title>
<path fill="none" stroke="#0410fd" d="M89.1909,-64.8269C92.1856,-58.6614 95.4218,-51.9986 98.4743,-45.714"/>
<ellipse fill="none" stroke="#0410fd" cx="87.4278" cy="-68.4569" rx="4.00002" ry="4.00002"/>
<polygon fill="#0410fd" stroke="#0410fd" points="98.6898,-45.2704 107.107,-38.2414 100.874,-40.7728 103.059,-36.2753 103.059,-36.2753 103.059,-36.2753 100.874,-40.7728 99.0111,-34.3092 98.6898,-45.2704 98.6898,-45.2704"/>
</g>
<!-- Tutor&#45;&gt;BatchTutor -->
<g id="edge19" class="edge"><title>Tutor&#45;&gt;BatchTutor</title>
<path fill="none" stroke="#be40f2" d="M317.385,-139.047C323.171,-131.547 329.676,-123.114 335.603,-115.43"/>
<ellipse fill="none" stroke="#be40f2" cx="314.877" cy="-142.298" rx="4.00002" ry="4.00002"/>
<polygon fill="#be40f2" stroke="#be40f2" points="335.638,-115.385 345.309,-110.216 338.692,-111.426 341.746,-107.467 341.746,-107.467 341.746,-107.467 338.692,-111.426 338.183,-104.719 335.638,-115.385 335.638,-115.385"/>
</g>
</g>
</svg>
